<?xml version="1.0" standalone="no"?>
<!DOCTYPE svg PUBLIC "-//W3C//DTD SVG 1.1//EN" "http://www.w3.org/Graphics/SVG/1.1/DTD/svg11.dtd">
<svg version="1.1" xmlns="http://www.w3.org/2000/svg" viewBox="0 0 234.27153052949262 65.48973930606476" width="702.8145915884779" height="196.4692179181943"><!-- svg-source:excalidraw --><metadata></metadata><defs><style class="style-fonts">
      </style></defs><g transform="translate(18.240441568973665 44.95337340286471) rotate(0 13.575342203550491 0)" stroke="none"><path fill="#1e1e1e" d="M 0,-2.54 Q 0,-2.54 1.66,-2.49 3.32,-2.45 4.46,-2.48 5.60,-2.52 6.77,-2.54 7.95,-2.57 9.23,-2.65 10.51,-2.73 11.67,-2.82 12.84,-2.91 14.11,-2.99 15.38,-3.06 16.64,-3.14 17.89,-3.22 18.97,-3.26 20.05,-3.30 21.22,-3.36 22.39,-3.41 24.77,-3.44 27.15,-3.48 27.70,-3.39 28.26,-3.30 28.76,-3.03 29.25,-2.77 29.64,-2.36 30.03,-1.95 30.27,-1.44 30.50,-0.93 30.56,-0.37 30.62,0.18 30.50,0.73 30.38,1.28 30.09,1.77 29.80,2.25 29.37,2.61 28.94,2.98 28.42,3.19 27.89,3.40 27.33,3.43 26.77,3.46 26.23,3.31 25.68,3.16 25.22,2.84 24.75,2.52 24.41,2.07 24.07,1.63 23.89,1.09 23.71,0.56 23.71,-0.00 23.71,-0.56 23.89,-1.09 24.07,-1.63 24.41,-2.08 24.75,-2.52 25.22,-2.84 25.68,-3.16 26.23,-3.31 26.77,-3.46 27.33,-3.43 27.90,-3.40 28.42,-3.19 28.94,-2.98 29.37,-2.61 29.80,-2.25 30.09,-1.77 30.38,-1.28 30.50,-0.73 30.62,-0.18 30.56,0.37 30.50,0.93 30.26,1.44 30.03,1.95 29.64,2.36 29.25,2.77 28.75,3.03 28.26,3.30 27.70,3.39 27.14,3.48 27.15,3.48 27.15,3.48 24.77,3.44 22.39,3.41 21.22,3.36 20.05,3.30 18.97,3.26 17.89,3.22 16.64,3.14 15.38,3.06 14.11,2.99 12.84,2.91 11.67,2.82 10.51,2.73 9.23,2.65 7.95,2.57 6.77,2.54 5.60,2.52 4.46,2.48 3.32,2.45 1.66,2.49 0,2.54 -0.30,2.50 -0.60,2.47 -0.89,2.36 -1.18,2.25 -1.43,2.07 -1.68,1.90 -1.89,1.67 -2.09,1.44 -2.23,1.17 -2.37,0.90 -2.45,0.60 -2.52,0.30 -2.52,-0.00 -2.52,-0.30 -2.45,-0.60 -2.37,-0.90 -2.23,-1.17 -2.09,-1.44 -1.89,-1.67 -1.68,-1.90 -1.43,-2.07 -1.18,-2.25 -0.89,-2.36 -0.60,-2.47 -0.30,-2.50 0.00,-2.54 0.00,-2.54 L 0,-2.54 Z"></path></g><g transform="translate(197.95291017376002 43.55991673852492) rotate(0 13.040682572149137 -0.10693192628028214)" stroke="none"><path fill="#1e1e1e" d="M -0.12,-2.58 Q -0.12,-2.58 1.19,-2.65 2.51,-2.71 4.31,-2.83 6.11,-2.94 8.09,-2.98 10.07,-3.02 12.45,-3.02 14.82,-3.01 16.82,-3.04 18.81,-3.08 19.93,-3.15 21.04,-3.22 23.61,-3.27 26.17,-3.33 26.67,-3.25 27.17,-3.16 27.62,-2.93 28.06,-2.69 28.41,-2.33 28.75,-1.96 28.97,-1.50 29.18,-1.04 29.23,-0.54 29.29,-0.04 29.18,0.44 29.07,0.94 28.81,1.37 28.55,1.80 28.17,2.13 27.78,2.45 27.31,2.64 26.84,2.83 26.34,2.85 25.84,2.88 25.35,2.75 24.86,2.61 24.45,2.33 24.03,2.05 23.72,1.64 23.42,1.24 23.26,0.76 23.10,0.29 23.10,-0.21 23.10,-0.71 23.26,-1.19 23.42,-1.67 23.72,-2.07 24.03,-2.47 24.45,-2.76 24.86,-3.04 25.35,-3.17 25.84,-3.31 26.34,-3.28 26.84,-3.25 27.31,-3.07 27.78,-2.88 28.17,-2.55 28.55,-2.23 28.81,-1.80 29.07,-1.36 29.18,-0.87 29.29,-0.38 29.23,0.11 29.18,0.62 28.97,1.07 28.75,1.53 28.41,1.90 28.06,2.26 27.61,2.50 27.17,2.74 26.67,2.82 26.17,2.90 26.17,2.90 26.17,2.90 23.61,2.85 21.04,2.79 19.93,2.72 18.82,2.65 16.82,2.62 14.82,2.58 12.45,2.59 10.08,2.60 8.13,2.57 6.18,2.54 4.47,2.51 2.75,2.47 1.43,2.52 0.12,2.58 -0.19,2.56 -0.50,2.54 -0.79,2.44 -1.09,2.34 -1.36,2.18 -1.62,2.01 -1.84,1.79 -2.06,1.56 -2.21,1.29 -2.37,1.03 -2.46,0.73 -2.55,0.43 -2.56,0.11 -2.58,-0.19 -2.52,-0.49 -2.46,-0.80 -2.32,-1.08 -2.19,-1.37 -2.00,-1.61 -1.80,-1.85 -1.55,-2.04 -1.30,-2.23 -1.02,-2.35 -0.73,-2.48 -0.42,-2.53 -0.12,-2.58 -0.12,-2.58 L -0.12,-2.58 Z"></path></g><g transform="translate(10 19.493550080070577) rotate(0 15.122513511918214 -2.669956534310586)" stroke="none"><path fill="#1e1e1e" d="M -1.28,-2.27 Q -1.28,-2.27 -0.50,-2.76 0.28,-3.24 1.29,-3.88 2.30,-4.51 3.26,-5.03 4.22,-5.54 5.52,-6.17 6.83,-6.79 8.20,-7.15 9.58,-7.51 10.67,-7.72 11.76,-7.92 12.85,-8.24 13.93,-8.56 15.34,-8.70 16.75,-8.84 18.11,-8.86 19.46,-8.89 20.60,-8.91 21.75,-8.93 23.23,-8.84 24.70,-8.74 25.80,-8.51 26.90,-8.27 27.92,-7.67 28.94,-7.06 30.90,-5.56 32.86,-4.07 33.21,-3.58 33.56,-3.10 33.74,-2.52 33.92,-1.95 33.91,-1.35 33.89,-0.75 33.69,-0.18 33.48,0.37 33.11,0.84 32.73,1.31 32.23,1.64 31.72,1.97 31.14,2.11 30.56,2.26 29.96,2.22 29.36,2.17 28.80,1.93 28.25,1.70 27.80,1.30 27.35,0.90 27.05,0.38 26.76,-0.14 26.64,-0.73 26.52,-1.32 26.60,-1.91 26.68,-2.51 26.95,-3.05 27.21,-3.59 27.64,-4.02 28.06,-4.44 28.60,-4.71 29.14,-4.98 29.73,-5.06 30.33,-5.15 30.92,-5.04 31.51,-4.93 32.03,-4.63 32.56,-4.34 32.96,-3.89 33.36,-3.45 33.60,-2.89 33.84,-2.34 33.89,-1.74 33.95,-1.14 33.80,-0.56 33.66,0.01 33.34,0.52 33.02,1.03 32.55,1.41 32.08,1.79 31.52,2.00 30.95,2.21 30.35,2.22 29.75,2.24 29.18,2.07 28.60,1.89 28.11,1.55 27.62,1.20 27.62,1.20 27.62,1.20 26.26,-0.02 24.91,-1.25 23.75,-1.49 22.59,-1.72 21.47,-1.74 20.34,-1.77 19.07,-1.79 17.80,-1.80 16.74,-1.85 15.67,-1.89 14.36,-1.64 13.05,-1.39 11.64,-1.25 10.24,-1.10 8.85,-0.80 7.45,-0.50 6.24,-0.02 5.02,0.45 3.97,0.94 2.93,1.42 2.11,1.84 1.28,2.27 0.99,2.39 0.70,2.51 0.39,2.56 0.08,2.61 -0.22,2.58 -0.54,2.55 -0.84,2.45 -1.13,2.35 -1.40,2.18 -1.66,2.01 -1.88,1.78 -2.10,1.55 -2.25,1.27 -2.41,1.00 -2.49,0.70 -2.58,0.39 -2.59,0.08 -2.60,-0.23 -2.53,-0.53 -2.47,-0.84 -2.33,-1.13 -2.19,-1.41 -1.99,-1.65 -1.79,-1.89 -1.54,-2.08 -1.28,-2.27 -1.28,-2.27 L -1.28,-2.27 Z"></path></g><g transform="translate(189.23127493652515 13.167858316053128) rotate(0 17.520127796483735 -0.3842866100697506)" stroke="none"><path fill="#1e1e1e" d="M -1.12,-2.23 Q -1.12,-2.23 -0.16,-2.75 0.79,-3.28 1.72,-3.78 2.66,-4.29 3.82,-4.72 4.98,-5.15 6.11,-5.56 7.23,-5.98 8.44,-6.17 9.65,-6.36 10.94,-6.42 12.24,-6.48 13.47,-6.53 14.70,-6.57 15.90,-6.62 17.10,-6.66 18.25,-6.64 19.41,-6.63 20.61,-6.30 21.82,-5.98 22.89,-5.83 23.96,-5.69 25.33,-5.63 26.71,-5.58 27.99,-5.27 29.27,-4.95 30.39,-4.60 31.50,-4.25 32.78,-3.96 34.06,-3.67 36.40,-0.97 38.74,1.72 38.75,2.33 38.76,2.94 38.58,3.52 38.40,4.10 38.04,4.59 37.68,5.08 37.18,5.43 36.68,5.79 36.09,5.96 35.51,6.13 34.90,6.11 34.29,6.09 33.72,5.87 33.15,5.66 32.68,5.27 32.21,4.89 31.88,4.37 31.56,3.85 31.42,3.26 31.28,2.67 31.33,2.06 31.39,1.45 31.63,0.89 31.88,0.34 32.29,-0.10 32.70,-0.55 33.23,-0.85 33.77,-1.14 34.37,-1.25 34.97,-1.36 35.57,-1.28 36.17,-1.19 36.72,-0.91 37.26,-0.64 37.69,-0.20 38.12,0.22 38.38,0.77 38.65,1.32 38.72,1.93 38.80,2.53 38.68,3.13 38.56,3.73 38.26,4.25 37.95,4.78 37.49,5.18 37.04,5.59 36.47,5.82 35.91,6.06 35.30,6.10 34.70,6.15 34.10,5.99 33.51,5.84 33.00,5.51 32.49,5.18 32.12,4.70 31.74,4.22 31.53,3.64 31.33,3.07 31.33,3.07 31.33,3.07 31.92,3.39 32.51,3.71 31.42,3.41 30.33,3.11 28.88,2.70 27.43,2.28 26.27,1.99 25.10,1.70 23.90,1.67 22.69,1.63 21.56,1.44 20.43,1.25 19.02,0.80 17.60,0.34 16.44,0.30 15.28,0.26 14.10,0.21 12.92,0.17 11.71,0.12 10.50,0.07 9.31,0.13 8.13,0.19 7.00,0.39 5.87,0.59 4.49,0.95 3.11,1.30 2.11,1.77 1.12,2.23 0.84,2.33 0.56,2.43 0.26,2.47 -0.03,2.50 -0.33,2.46 -0.63,2.42 -0.91,2.30 -1.19,2.19 -1.44,2.02 -1.68,1.84 -1.88,1.61 -2.08,1.39 -2.21,1.12 -2.35,0.85 -2.42,0.55 -2.48,0.26 -2.48,-0.03 -2.48,-0.34 -2.40,-0.63 -2.32,-0.92 -2.18,-1.18 -2.03,-1.45 -1.83,-1.67 -1.63,-1.89 -1.38,-2.06 -1.12,-2.23 -1.12,-2.23 L -1.12,-2.23 Z"></path></g><g transform="translate(113.16838407356744 49.518989661307586) rotate(0 16.381287486897975 2.9527018646602414)" stroke="none"><path fill="#1e1e1e" d="M 2.29,-1.10 Q 2.29,-1.10 2.66,-0.43 3.03,0.22 3.92,0.93 4.81,1.64 5.99,1.48 7.17,1.33 8.21,0.46 9.24,-0.40 10.29,-0.75 11.34,-1.10 12.43,-1.23 13.53,-1.35 14.69,-1.19 15.86,-1.03 16.74,-0.36 17.63,0.31 18.47,1.02 19.32,1.73 20.43,1.99 21.55,2.25 22.67,1.80 23.80,1.34 24.82,0.83 25.84,0.32 27.02,-0.27 28.19,-0.86 28.84,-1.21 29.49,-1.56 29.88,-2.03 30.26,-2.51 30.77,-2.83 31.29,-3.16 31.88,-3.30 32.47,-3.44 33.08,-3.39 33.69,-3.34 34.25,-3.09 34.80,-2.85 35.25,-2.44 35.71,-2.03 36.00,-1.50 36.30,-0.97 36.41,-0.37 36.52,0.22 36.44,0.82 36.35,1.43 36.08,1.97 35.80,2.52 35.37,2.94 34.94,3.37 34.39,3.64 33.84,3.91 33.24,3.99 32.63,4.06 32.04,3.95 31.44,3.83 30.91,3.52 30.38,3.22 29.98,2.77 29.57,2.31 29.34,1.75 29.10,1.19 29.05,0.58 29.01,-0.02 29.16,-0.61 29.31,-1.20 29.64,-1.71 29.97,-2.22 30.45,-2.60 30.92,-2.98 31.50,-3.18 32.07,-3.39 32.68,-3.40 33.29,-3.42 33.87,-3.23 34.45,-3.05 34.94,-2.69 35.44,-2.34 35.79,-1.84 36.14,-1.34 36.32,-0.76 36.49,-0.17 36.47,0.42 36.45,1.03 36.24,1.60 36.02,2.17 36.02,2.17 36.02,2.17 33.68,4.07 31.34,5.96 30.37,6.46 29.39,6.95 28.34,7.46 27.28,7.96 25.96,8.60 24.65,9.25 23.31,9.46 21.98,9.68 20.75,9.64 19.52,9.59 18.20,9.14 16.87,8.70 15.89,8.15 14.91,7.60 14.25,6.47 13.58,5.34 12.46,5.81 11.34,6.29 9.92,6.93 8.49,7.58 7.20,7.64 5.90,7.70 4.85,7.54 3.79,7.39 2.74,7.02 1.68,6.65 0.87,5.95 0.05,5.25 -0.83,3.87 -1.72,2.50 -2.01,1.80 -2.29,1.10 -2.39,0.80 -2.49,0.51 -2.51,0.21 -2.54,-0.09 -2.49,-0.39 -2.44,-0.69 -2.32,-0.98 -2.20,-1.26 -2.02,-1.51 -1.84,-1.75 -1.60,-1.95 -1.36,-2.14 -1.09,-2.27 -0.81,-2.41 -0.51,-2.47 -0.21,-2.53 0.09,-2.52 0.39,-2.51 0.69,-2.43 0.98,-2.34 1.25,-2.19 1.52,-2.04 1.74,-1.82 1.96,-1.61 2.13,-1.35 2.29,-1.09 2.29,-1.09 L 2.29,-1.10 Z"></path></g><g transform="translate(37.03479151136952 48.38570478502001) rotate(0 1.6289803205286546 1.144487033219562)" stroke="none"><path fill="#1e1e1e" d="M 0,-2.41 Q 0,-2.41 0.46,-2.46 0.92,-2.51 2.03,-2.63 3.14,-2.75 2.04,-2.07 0.93,-1.38 1.23,-0.05 1.54,1.26 2.92,1.52 4.30,1.77 3.50,0.98 2.69,0.19 1.45,0.28 0.20,0.36 -0.64,1.21 -1.48,2.06 -0.94,3.02 -0.41,3.98 1.15,3.36 2.71,2.73 3.02,1.72 3.32,0.70 3.19,1.09 3.06,1.48 2.84,1.82 2.61,2.17 2.32,2.45 2.02,2.73 1.66,2.93 1.30,3.14 0.91,3.25 0.52,3.36 0.11,3.37 -0.29,3.38 -0.70,3.30 -1.10,3.21 -1.47,3.04 -1.84,2.86 -2.15,2.60 -2.47,2.33 -2.71,2.00 -2.95,1.67 -3.11,1.30 -3.27,0.92 -3.33,0.51 -3.40,0.11 -3.36,-0.29 -3.32,-0.70 -3.36,-0.29 -3.40,0.12 -3.33,-0.42 -3.26,-0.97 -3.02,-1.46 -2.78,-1.96 -2.39,-2.35 -2.00,-2.74 -1.51,-2.99 -1.02,-3.24 -0.48,-3.32 0.06,-3.40 0.60,-3.30 1.14,-3.20 1.62,-2.93 2.10,-2.67 2.47,-2.26 2.85,-1.85 3.07,-1.35 3.29,-0.84 3.34,-0.30 3.39,0.24 3.26,0.78 3.13,1.31 2.84,1.78 2.55,2.25 2.12,2.59 1.69,2.94 1.18,3.14 0.66,3.33 0.11,3.35 -0.43,3.37 -0.95,3.21 -1.48,3.06 -1.93,2.74 -2.38,2.42 -2.71,1.98 -3.03,1.53 -3.20,1.01 -3.36,0.48 -3.35,-0.06 -3.34,-0.61 -3.16,-1.13 -2.97,-1.64 -2.63,-2.08 -2.29,-2.51 -1.83,-2.81 -1.37,-3.11 -0.83,-3.25 -0.30,-3.38 0.24,-3.34 0.79,-3.30 1.30,-3.09 1.80,-2.88 2.22,-2.51 2.63,-2.15 2.90,-1.67 3.18,-1.20 3.25,-0.24 3.32,0.70 3.19,1.09 3.06,1.48 2.84,1.82 2.61,2.17 2.32,2.45 2.02,2.73 1.66,2.93 1.31,3.14 0.91,3.25 0.52,3.36 0.11,3.37 -0.29,3.38 -0.70,3.30 -1.10,3.21 -1.47,3.04 -1.84,2.86 -2.15,2.60 -2.47,2.33 -2.71,2.00 -2.95,1.67 -3.11,1.30 -3.27,0.92 -3.33,0.51 -3.40,0.11 -3.36,-0.29 -3.32,-0.70 -3.17,-0.81 -3.01,-0.93 -1.46,-1.77 0.08,-2.60 1.18,-2.39 2.28,-2.17 3.27,-1.39 4.26,-0.61 4.57,1.38 4.88,3.39 3.91,4.55 2.95,5.71 1.88,5.97 0.81,6.23 -0.31,5.36 -1.45,4.50 -1.67,2.96 -1.89,1.41 -1.48,0.34 -1.06,-0.73 -0.43,-1.61 0.19,-2.49 1.64,-3.08 3.09,-3.66 4.15,-3.17 5.20,-2.68 5.54,-0.76 5.88,1.16 4.51,1.96 3.14,2.75 2.03,2.63 0.92,2.51 0.46,2.46 0,2.41 -0.28,2.38 -0.57,2.34 -0.85,2.24 -1.12,2.14 -1.36,1.97 -1.60,1.81 -1.79,1.59 -1.99,1.37 -2.12,1.11 -2.26,0.85 -2.33,0.57 -2.40,0.29 -2.40,-0.00 -2.40,-0.29 -2.33,-0.57 -2.26,-0.85 -2.12,-1.11 -1.99,-1.37 -1.79,-1.59 -1.60,-1.81 -1.36,-1.97 -1.12,-2.14 -0.85,-2.24 -0.57,-2.34 -0.28,-2.38 0.00,-2.41 0.00,-2.41 L 0,-2.41 Z"></path></g><g transform="translate(218.82339420390207 47.66316566290587) rotate(0 0.383673874921044 0.12789129164035273)" stroke="none"><path fill="#1e1e1e" d="M 2.25,-0.77 Q 2.25,-0.77 2.46,-0.32 2.67,0.12 1.60,-0.25 0.53,-0.62 0.67,0.48 0.81,1.60 1.83,0.03 2.86,-1.52 3.03,-1.02 3.20,-0.52 3.20,-0.00 3.20,0.52 3.03,1.02 2.86,1.51 2.54,1.93 2.23,2.35 1.79,2.65 1.36,2.94 0.85,3.08 0.35,3.22 -0.17,3.19 -0.69,3.16 -1.18,2.97 -1.67,2.78 -2.07,2.44 -2.47,2.10 -2.74,1.65 -3.01,1.20 -3.12,0.68 -3.23,0.17 -3.18,-0.34 -3.12,-0.86 -2.90,-1.34 -2.68,-1.82 -2.32,-2.20 -1.96,-2.58 -1.49,-2.82 -1.03,-3.07 -0.51,-3.15 0.00,-3.24 0.51,-3.15 1.03,-3.07 1.49,-2.82 1.96,-2.58 2.32,-2.20 2.68,-1.82 2.90,-1.34 3.12,-0.86 3.18,-0.34 3.23,0.17 3.12,0.68 3.01,1.20 2.74,1.65 2.47,2.10 2.07,2.44 1.67,2.78 1.18,2.97 0.69,3.16 0.17,3.19 -0.35,3.22 -0.85,3.08 -1.36,2.94 -1.79,2.65 -2.23,2.35 -2.54,1.93 -2.86,1.51 -2.86,1.51 -2.86,1.52 -3.10,-0.71 -3.34,-2.94 -2.22,-3.68 -1.09,-4.43 0.11,-4.44 1.33,-4.45 2.71,-3.75 4.09,-3.06 4.49,-1.69 4.89,-0.33 4.67,0.83 4.46,1.99 3.58,2.98 2.70,3.98 1.14,3.95 -0.41,3.92 -1.22,2.83 -2.03,1.74 -2.14,1.25 -2.25,0.77 -2.31,0.49 -2.37,0.21 -2.37,-0.07 -2.36,-0.36 -2.28,-0.64 -2.20,-0.91 -2.06,-1.16 -1.92,-1.41 -1.72,-1.62 -1.52,-1.83 -1.28,-1.99 -1.04,-2.14 -0.76,-2.24 -0.49,-2.33 -0.21,-2.36 0.07,-2.38 0.36,-2.34 0.64,-2.30 0.91,-2.18 1.17,-2.07 1.40,-1.90 1.64,-1.73 1.82,-1.51 2.00,-1.29 2.13,-1.03 2.25,-0.77 2.25,-0.77 L 2.25,-0.77 Z"></path></g></svg>