<?xml version="1.0" standalone="no"?>
<!DOCTYPE svg PUBLIC "-//W3C//DTD SVG 1.1//EN" "http://www.w3.org/Graphics/SVG/1.1/DTD/svg11.dtd">
<svg version="1.1" xmlns="http://www.w3.org/2000/svg" viewBox="0 0 329.13143783330025 63.86808731718685" width="987.3943134999008" height="191.60426195156055"><!-- svg-source:excalidraw --><metadata></metadata><defs><style class="style-fonts">
      </style></defs><g transform="translate(10.209173966592004 20.46792659283267) rotate(0 4.340359806784278 5.766126476128363)" stroke="none"><path fill="#1e1e1e" d="M 5.00,0.15 Q 5.00,0.15 5.02,2.10 5.05,4.05 5.23,6.55 5.41,9.05 3.60,7.90 1.78,6.76 1.97,4.55 2.15,2.34 3.41,4.30 4.66,6.26 6.59,5.11 8.51,3.96 6.85,0.84 5.19,-2.27 2.74,-2.54 0.29,-2.80 1.23,2.51 2.18,7.84 -0.04,7.24 -2.27,6.65 -3.28,6.11 -4.28,5.57 -5.06,4.74 -5.84,3.91 -6.31,2.88 -6.78,1.84 -6.90,0.71 -7.01,-0.41 -6.76,-1.52 -6.51,-2.63 -5.92,-3.60 -5.33,-4.58 -4.46,-5.31 -3.59,-6.04 -2.53,-6.45 -1.47,-6.87 -0.33,-6.93 0.79,-6.98 1.89,-6.67 2.98,-6.36 3.92,-5.72 4.86,-5.07 5.54,-4.17 6.23,-3.26 6.58,-2.18 6.94,-1.10 6.93,0.03 6.93,1.17 6.56,2.25 6.19,3.32 5.50,4.22 4.80,5.13 3.86,5.76 2.91,6.39 1.82,6.69 0.72,6.99 -0.41,6.92 -1.54,6.85 -2.60,6.43 -3.65,6.00 -4.52,5.26 -5.38,4.52 -5.96,3.54 -6.54,2.56 -6.78,1.45 -7.02,0.34 -6.89,-0.78 -6.76,-1.91 -6.28,-2.94 -5.79,-3.97 -5.01,-4.79 -4.22,-5.62 -3.21,-6.14 -2.20,-6.67 -1.08,-6.85 0.03,-7.03 1.15,-6.84 2.28,-6.65 2.28,-6.65 2.27,-6.65 5.04,-5.53 7.80,-4.41 9.20,1.17 10.60,6.75 8.53,8.53 6.46,10.30 3.47,10.68 0.48,11.06 -2.02,9.02 -4.53,6.98 -4.94,3.77 -5.35,0.55 -3.98,-2.01 -2.61,-4.58 -0.79,-5.74 1.02,-6.89 3.60,-7.10 6.18,-7.31 8.47,-6.70 10.75,-6.09 12.40,-4.69 14.04,-3.30 14.85,-0.86 15.66,1.57 15.51,3.86 15.37,6.15 14.75,8.34 14.13,10.54 12.63,12.77 11.13,15.01 9.22,16.28 7.30,17.56 4.79,17.57 2.29,17.58 -1.39,15.08 -5.08,12.59 -5.41,10.38 -5.74,8.16 -5.52,5.95 -5.29,3.73 -5.14,1.79 -5.00,-0.15 -4.91,-0.75 -4.82,-1.34 -4.59,-1.90 -4.36,-2.46 -4.00,-2.94 -3.64,-3.43 -3.18,-3.82 -2.71,-4.20 -2.17,-4.47 -1.63,-4.73 -1.04,-4.86 -0.44,-4.98 0.15,-4.96 0.75,-4.95 1.33,-4.78 1.92,-4.62 2.44,-4.32 2.97,-4.03 3.41,-3.61 3.85,-3.20 4.17,-2.69 4.50,-2.18 4.70,-1.61 4.89,-1.04 4.95,-0.44 5.00,0.15 5.00,0.15 L 5.00,0.15 Z"></path></g><g transform="translate(315.566252138004 10) rotate(0 0.7182664882240601 4.64950662505629)" stroke="none"><path fill="#1e1e1e" d="M 4.59,1.84 Q 4.59,1.84 4.09,3.35 3.59,4.87 1.44,4.16 -0.70,3.45 -1.00,5.59 -1.29,7.72 1.51,6.89 4.33,6.06 2.56,2.99 0.79,-0.07 -1.58,0.76 -3.97,1.59 -5.26,2.11 -6.55,2.63 -6.80,1.51 -7.04,0.40 -6.92,-0.73 -6.80,-1.86 -6.33,-2.90 -5.85,-3.94 -5.07,-4.77 -4.28,-5.60 -3.28,-6.14 -2.27,-6.68 -1.14,-6.87 -0.01,-7.06 1.10,-6.87 2.23,-6.69 3.24,-6.16 4.25,-5.63 5.04,-4.80 5.83,-3.97 6.31,-2.94 6.79,-1.90 6.92,-0.77 7.05,0.36 6.80,1.47 6.56,2.59 5.98,3.57 5.39,4.55 4.52,5.29 3.65,6.04 2.59,6.46 1.53,6.89 0.39,6.95 -0.74,7.02 -1.84,6.71 -2.94,6.41 -3.89,5.77 -4.84,5.13 -5.53,4.23 -6.22,3.32 -6.59,2.24 -6.96,1.16 -6.96,0.01 -6.97,-1.12 -6.60,-2.20 -6.24,-3.29 -5.55,-4.20 -4.86,-5.11 -3.92,-5.75 -2.98,-6.40 -1.88,-6.70 -0.78,-7.01 0.35,-6.95 1.50,-6.90 2.56,-6.48 3.62,-6.06 4.49,-5.32 5.37,-4.58 5.96,-3.60 6.55,-2.63 6.55,-2.63 6.55,-2.63 7.68,0.61 8.80,3.86 8.53,6.14 8.26,8.43 6.78,10.35 5.29,12.28 1.49,12.88 -2.29,13.49 -4.65,11.79 -7.01,10.08 -7.96,7.27 -8.90,4.45 -8.23,2.12 -7.57,-0.20 -5.29,-2.34 -3.02,-4.48 -0.81,-4.76 1.38,-5.04 3.73,-4.12 6.08,-3.19 7.67,-1.50 9.27,0.19 9.59,3.44 9.91,6.68 9.42,8.90 8.93,11.11 7.34,12.80 5.76,14.48 3.09,14.87 0.42,15.26 -1.80,14.85 -4.03,14.44 -5.57,12.90 -7.11,11.36 -7.30,8.60 -7.49,5.84 -6.73,3.44 -5.96,1.04 -5.28,-0.39 -4.59,-1.84 -4.31,-2.36 -4.02,-2.88 -3.62,-3.32 -3.21,-3.76 -2.71,-4.09 -2.22,-4.42 -1.65,-4.62 -1.09,-4.83 -0.50,-4.89 0.09,-4.95 0.68,-4.87 1.27,-4.78 1.82,-4.56 2.38,-4.34 2.86,-3.99 3.35,-3.64 3.73,-3.19 4.12,-2.73 4.39,-2.20 4.66,-1.67 4.79,-1.08 4.92,-0.50 4.91,0.09 4.90,0.68 4.75,1.26 4.59,1.84 4.59,1.84 L 4.59,1.84 Z"></path></g><g transform="translate(148.5900572181851 35.04243032390565) rotate(0 19.18555925932924 5.658463405088355)" stroke="none"><path fill="#1e1e1e" d="M 5.27,0 Q 5.27,0 5.35,1.60 5.43,3.21 5.57,5.66 5.71,8.11 6.57,10.14 7.42,12.18 9.12,10.57 10.83,8.95 11.97,6.52 13.12,4.08 14.85,1.99 16.58,-0.09 18.93,-0.82 21.28,-1.55 25.09,0.79 28.89,3.14 30.58,4.45 32.28,5.75 34.42,6.89 36.56,8.03 33.63,9.70 30.71,11.36 30.78,8.96 30.84,6.56 30.83,4.06 30.83,1.56 30.83,-0.75 30.83,-3.08 30.83,-5.29 30.83,-7.50 31.03,-8.71 31.22,-9.91 31.79,-10.99 32.37,-12.07 33.25,-12.90 34.14,-13.74 35.24,-14.25 36.35,-14.77 37.56,-14.90 38.77,-15.03 39.97,-14.77 41.16,-14.51 42.20,-13.88 43.25,-13.25 44.04,-12.32 44.82,-11.39 45.28,-10.26 45.73,-9.12 45.79,-7.91 45.86,-6.69 45.53,-5.51 45.21,-4.34 44.52,-3.33 43.84,-2.32 42.87,-1.58 41.90,-0.84 40.74,-0.45 39.58,-0.07 38.36,-0.07 37.15,-0.07 35.99,-0.46 34.83,-0.85 33.86,-1.58 32.89,-2.32 32.21,-3.33 31.52,-4.34 31.20,-5.52 30.87,-6.69 30.94,-7.91 31.01,-9.13 31.46,-10.26 31.91,-11.39 32.70,-12.32 33.49,-13.25 34.53,-13.88 35.58,-14.51 36.77,-14.77 37.96,-15.03 39.17,-14.90 40.38,-14.77 41.49,-14.25 42.60,-13.74 43.48,-12.90 44.37,-12.06 44.94,-10.99 45.51,-9.91 45.71,-8.70 45.90,-7.50 45.90,-7.50 45.90,-7.50 45.90,-4.60 45.89,-1.69 45.90,0.72 45.90,3.15 45.85,5.69 45.80,8.24 45.52,10.75 45.24,13.25 44.67,15.55 44.09,17.85 42.34,19.43 40.59,21.01 37.53,21.83 34.47,22.64 32.36,21.99 30.25,21.33 28.24,20.22 26.22,19.11 24.12,17.63 22.01,16.15 20.70,13.92 19.38,11.69 22.26,11.58 25.14,11.48 24.07,13.49 23.00,15.51 21.35,18.13 19.71,20.75 17.58,22.58 15.45,24.41 13.11,24.93 10.77,25.45 8.04,25.18 5.31,24.90 3.33,24.07 1.35,23.24 -0.81,20.97 -2.97,18.71 -4.02,16.26 -5.07,13.80 -5.39,10.96 -5.71,8.11 -5.57,5.66 -5.43,3.21 -5.35,1.60 -5.27,0 -5.20,-0.63 -5.12,-1.26 -4.90,-1.85 -4.67,-2.45 -4.31,-2.97 -3.95,-3.50 -3.47,-3.92 -2.99,-4.34 -2.43,-4.64 -1.87,-4.93 -1.25,-5.08 -0.63,-5.24 0.00,-5.24 0.63,-5.24 1.25,-5.08 1.87,-4.93 2.43,-4.64 2.99,-4.34 3.47,-3.92 3.95,-3.50 4.31,-2.97 4.67,-2.45 4.90,-1.85 5.12,-1.26 5.20,-0.63 5.27,0.00 5.27,0.00 L 5.27,0 Z"></path></g></svg>