<svg xmlns="http://www.w3.org/2000/svg" viewBox="0 0 32 32" fill="none">
  <circle cx="16" cy="16" r="15" fill="url(#grad3)" stroke="rgba(15,23,42,0.08)" stroke-width="1.5" />
  <defs>
    <radialGradient id="grad3" cx="0" cy="0" r="1" gradientUnits="userSpaceOnUse" gradientTransform="translate(8 6) rotate(35) scale(30)">
      <stop stop-color="#34D399" />
      <stop offset="0.6" stop-color="#22C55E" />
      <stop offset="1" stop-color="#0EA5E9" />
    </radialGradient>
  </defs>
  <path d="M9.5 13c.5-.7 1.3-1.2 2.2-1.2.9 0 1.7.5 2.2 1.2M18.1 13c.5-.7 1.3-1.2 2.2-1.2.9 0 1.7.5 2.2 1.2" stroke="#064E3B" stroke-width="1.8" stroke-linecap="round" />
  <path d="M11 19.5c1.5 1.1 3.2 1.7 5 1.7 1.8 0 3.5-.6 5-1.7" stroke="#064E3B" stroke-width="2.2" stroke-linecap="round" />
  <path d="M12.2 21.2c1 .5 2.5.8 3.8.8 1.3 0 2.8-.3 3.8-.8" stroke="#D1FAE5" stroke-width="1.4" stroke-linecap="round" />
</svg>
