<svg xmlns="http://www.w3.org/2000/svg" viewBox="0 0 32 32" fill="none">
  <circle cx="16" cy="16" r="15" fill="url(#grad)" stroke="rgba(15,23,42,0.08)" stroke-width="1.5" />
  <defs>
    <radialGradient id="grad" cx="0" cy="0" r="1" gradientUnits="userSpaceOnUse" gradientTransform="translate(8 6) rotate(45) scale(28)">
      <stop stop-color="#FDE68A" />
      <stop offset="0.6" stop-color="#F97316" />
      <stop offset="1" stop-color="#EA580C" />
    </radialGradient>
  </defs>
  <path d="M11 12.5c0 .8-.6 1.4-1.4 1.4-.8 0-1.4-.6-1.4-1.4 0-.8.6-1.4 1.4-1.4.8 0 1.4.6 1.4 1.4ZM23.8 12.5c0 .8-.6 1.4-1.4 1.4-.8 0-1.4-.6-1.4-1.4 0-.8.6-1.4 1.4-1.4.8 0 1.4.6 1.4 1.4ZM10.8 18.2c1.5 2.1 3.8 3.4 6.2 3.4 2.4 0 4.7-1.3 6.2-3.4" stroke="#431407" stroke-width="2" stroke-linecap="round" />
</svg>
