<?xml version="1.0" standalone="no"?>
<!DOCTYPE svg PUBLIC "-//W3C//DTD SVG 1.1//EN" "http://www.w3.org/Graphics/SVG/1.1/DTD/svg11.dtd">
<svg version="1.1" xmlns="http://www.w3.org/2000/svg" viewBox="0 0 319.53537914294424 66.89350865991315" width="958.6061374288327" height="200.68052597973946"><!-- svg-source:excalidraw --><metadata></metadata><defs><style class="style-fonts">
      </style></defs><g transform="translate(16.298828626499073 21.634778991622568) rotate(0 -0.8124285330356997 2.7482150376763457)" stroke="none"><path fill="#1e1e1e" d="M 4.96,0.25 Q 4.96,0.25 4.99,1.53 5.02,2.80 3.65,1.06 2.27,-0.67 0.50,0.58 -1.26,1.85 1.21,2.81 3.70,3.78 2.91,1.72 2.12,-0.33 -0.14,0.48 -2.40,1.31 -1.47,3.42 -0.55,5.54 -1.04,3.26 -1.54,0.97 0.05,2.87 1.65,4.76 3.71,4.71 5.78,4.66 4.88,5.46 3.99,6.27 2.88,6.74 1.77,7.21 0.58,7.31 -0.61,7.40 -1.78,7.11 -2.95,6.82 -3.96,6.17 -4.97,5.52 -5.72,4.58 -6.47,3.64 -6.89,2.51 -7.30,1.38 -7.33,0.18 -7.36,-1.01 -7.00,-2.16 -6.65,-3.31 -5.94,-4.29 -5.24,-5.26 -4.26,-5.96 -3.28,-6.66 -2.13,-7.01 -0.98,-7.36 0.21,-7.33 1.41,-7.29 2.54,-6.87 3.67,-6.46 4.60,-5.70 5.54,-4.95 6.18,-3.93 6.83,-2.92 7.12,-1.75 7.40,-0.58 7.30,0.61 7.20,1.80 6.73,2.91 6.25,4.01 5.44,4.91 4.64,5.80 3.59,6.39 2.54,6.98 1.36,7.20 0.18,7.43 -1.00,7.26 -2.19,7.10 -3.27,6.56 -4.35,6.02 -5.19,5.17 -6.04,4.32 -6.57,3.24 -7.11,2.16 -7.27,0.97 -7.42,-0.21 -7.20,-1.39 -6.97,-2.57 -6.37,-3.62 -5.78,-4.67 -5.78,-4.66 -5.78,-4.66 -2.16,-7.27 1.45,-9.87 4.28,-9.43 7.10,-8.98 8.67,-7.35 10.24,-5.72 10.97,-3.36 11.70,-0.99 11.44,1.52 11.18,4.05 10.04,6.89 8.89,9.73 6.88,11.66 4.87,13.60 2.00,14.39 -0.85,15.19 -4.17,14.71 -7.49,14.24 -9.51,12.57 -11.53,10.91 -12.35,7.32 -13.17,3.74 -12.39,1.11 -11.61,-1.50 -10.45,-3.32 -9.30,-5.14 -6.35,-6.76 -3.40,-8.38 -0.26,-8.29 2.87,-8.20 5.01,-7.23 7.14,-6.25 8.62,-4.55 10.10,-2.86 10.58,-0.11 11.06,2.63 10.38,5.23 9.70,7.84 8.34,9.49 6.99,11.15 3.43,11.88 -0.13,12.62 -2.39,11.26 -4.66,9.89 -5.76,7.43 -6.87,4.98 -6.80,2.30 -6.73,-0.37 -5.31,-2.87 -3.89,-5.38 -0.74,-6.27 2.39,-7.16 4.40,-6.41 6.40,-5.66 8.01,-4.06 9.63,-2.46 10.12,-0.10 10.61,2.25 10.03,4.38 9.45,6.50 7.54,8.15 5.64,9.80 2.96,9.96 0.28,10.13 -1.93,8.67 -4.15,7.22 -4.72,4.74 -5.29,2.27 -5.12,1.00 -4.96,-0.25 -4.86,-0.84 -4.75,-1.43 -4.51,-1.98 -4.27,-2.53 -3.91,-3.00 -3.54,-3.48 -3.07,-3.85 -2.60,-4.22 -2.06,-4.48 -1.52,-4.73 -0.93,-4.84 -0.34,-4.95 0.25,-4.92 0.85,-4.89 1.42,-4.72 1.99,-4.55 2.51,-4.24 3.02,-3.93 3.45,-3.51 3.88,-3.09 4.19,-2.58 4.51,-2.07 4.69,-1.50 4.88,-0.93 4.92,-0.34 4.96,0.25 4.96,0.25 L 4.96,0.25 Z"></path></g><g transform="translate(301.3943771761049 15.757209604475293) rotate(0 2.5342420907039696 1.0698647348618522)" stroke="none"><path fill="#1e1e1e" d="M 4.04,-2.91 Q 4.04,-2.91 4.71,-2.14 5.37,-1.37 3.14,-1.91 0.91,-2.45 2.25,-0.00 3.59,2.45 1.67,3.44 -0.23,4.42 -0.73,5.66 -1.23,6.89 -2.30,6.52 -3.37,6.14 -4.26,5.44 -5.16,4.74 -5.78,3.79 -6.40,2.84 -6.69,1.74 -6.97,0.65 -6.90,-0.47 -6.82,-1.61 -6.38,-2.65 -5.95,-3.70 -5.20,-4.55 -4.45,-5.41 -3.47,-5.98 -2.49,-6.55 -1.38,-6.77 -0.27,-7.00 0.85,-6.86 1.97,-6.72 2.99,-6.23 4.02,-5.74 4.83,-4.94 5.64,-4.15 6.16,-3.14 6.67,-2.13 6.84,-1.01 7.00,0.10 6.80,1.22 6.60,2.33 6.06,3.33 5.51,4.32 4.67,5.09 3.84,5.86 2.80,6.32 1.77,6.78 0.64,6.88 -0.48,6.99 -1.59,6.73 -2.69,6.47 -3.65,5.87 -4.61,5.27 -5.34,4.39 -6.06,3.52 -6.46,2.46 -6.86,1.40 -6.91,0.26 -6.95,-0.86 -6.63,-1.95 -6.31,-3.04 -5.66,-3.96 -5.01,-4.89 -4.10,-5.57 -3.18,-6.24 -2.10,-6.58 -1.02,-6.93 0.10,-6.91 1.24,-6.89 1.23,-6.89 1.23,-6.89 5.88,-5.58 10.53,-4.26 12.13,-2.20 13.74,-0.14 14.05,2.38 14.35,4.91 13.80,7.17 13.25,9.44 11.90,11.16 10.55,12.88 8.32,13.83 6.08,14.79 2.89,14.34 -0.29,13.89 -2.06,12.67 -3.82,11.45 -5.10,9.42 -6.38,7.40 -6.71,3.63 -7.03,-0.14 -6.05,-3.50 -5.07,-6.86 -3.00,-8.04 -0.94,-9.23 3.43,-9.14 7.81,-9.05 10.79,-6.31 13.78,-3.56 14.19,0.66 14.60,4.89 12.96,7.57 11.31,10.24 8.06,11.49 4.82,12.74 2.51,12.55 0.19,12.36 -2.93,11.08 -6.06,9.81 -7.47,7.86 -8.88,5.92 -9.23,2.98 -9.58,0.04 -9.25,-2.54 -8.92,-5.12 -6.99,-7.86 -5.07,-10.61 -2.21,-11.23 0.64,-11.86 3.67,-10.54 6.70,-9.22 8.19,-6.93 9.69,-4.63 9.68,-2.18 9.67,0.27 8.92,2.51 8.18,4.75 5.11,6.24 2.05,7.73 -0.46,6.20 -2.99,4.68 -3.52,3.79 -4.04,2.91 -4.33,2.38 -4.62,1.86 -4.78,1.27 -4.93,0.69 -4.95,0.09 -4.96,-0.50 -4.82,-1.08 -4.69,-1.67 -4.42,-2.21 -4.15,-2.75 -3.76,-3.20 -3.38,-3.66 -2.89,-4.01 -2.40,-4.36 -1.84,-4.59 -1.28,-4.81 -0.69,-4.90 -0.09,-4.98 0.50,-4.92 1.09,-4.86 1.66,-4.66 2.23,-4.46 2.73,-4.12 3.23,-3.79 3.64,-3.35 4.04,-2.91 4.04,-2.91 L 4.04,-2.91 Z"></path></g><g transform="translate(119.73803185115702 32.396949558873416) rotate(0 19.66879448497565 8.411811477851217)" stroke="none"><path fill="#1e1e1e" d="M 5.35,0 Q 5.35,0 5.41,1.94 5.47,3.88 5.61,6.55 5.74,9.21 6.95,11.41 8.16,13.61 9.88,15.06 11.60,16.52 13.69,17.06 15.78,17.61 18.29,17.67 20.81,17.72 22.96,16.43 25.11,15.13 26.87,12.40 28.64,9.66 29.69,7.48 30.75,5.29 31.46,2.81 32.17,0.32 32.20,-1.90 32.22,-4.14 32.22,-5.91 32.22,-7.68 32.41,-8.81 32.60,-9.95 33.14,-10.96 33.68,-11.98 34.51,-12.77 35.35,-13.56 36.39,-14.04 37.44,-14.52 38.58,-14.64 39.73,-14.77 40.85,-14.52 41.97,-14.27 42.96,-13.68 43.94,-13.08 44.69,-12.20 45.43,-11.33 45.85,-10.26 46.28,-9.19 46.34,-8.04 46.40,-6.89 46.09,-5.78 45.78,-4.67 45.14,-3.72 44.49,-2.77 43.57,-2.08 42.66,-1.38 41.57,-1.02 40.47,-0.65 39.32,-0.65 38.17,-0.65 37.08,-1.02 35.99,-1.39 35.08,-2.09 34.16,-2.78 33.52,-3.74 32.88,-4.69 32.57,-5.80 32.26,-6.91 32.33,-8.06 32.39,-9.21 32.82,-10.27 33.24,-11.34 33.99,-12.22 34.74,-13.09 35.72,-13.69 36.71,-14.28 37.83,-14.52 38.96,-14.77 40.10,-14.64 41.24,-14.52 42.29,-14.03 43.33,-13.55 44.16,-12.76 45.00,-11.96 45.54,-10.95 46.07,-9.93 46.26,-8.79 46.44,-7.66 46.44,-7.66 46.44,-7.66 46.41,-5.10 46.37,-2.55 46.07,0.51 45.78,3.58 45.03,6.30 44.28,9.02 43.28,11.24 42.29,13.47 40.55,16.73 38.82,19.99 37.40,21.93 35.98,23.86 33.85,26.03 31.71,28.19 29.19,29.49 26.67,30.78 24.27,31.03 21.86,31.28 19.44,31.15 17.03,31.02 13.77,30.34 10.52,29.66 8.26,28.76 6.00,27.86 4.10,26.47 2.20,25.08 -0.03,22.43 -2.26,19.79 -3.64,16.63 -5.03,13.48 -5.39,11.38 -5.74,9.27 -5.61,6.58 -5.47,3.88 -5.41,1.94 -5.35,0 -5.27,-0.64 -5.20,-1.28 -4.97,-1.88 -4.74,-2.48 -4.37,-3.02 -4.00,-3.55 -3.52,-3.98 -3.04,-4.40 -2.47,-4.70 -1.89,-5.00 -1.27,-5.16 -0.64,-5.31 0.00,-5.31 0.64,-5.31 1.27,-5.16 1.89,-5.00 2.47,-4.70 3.04,-4.40 3.52,-3.98 4.01,-3.55 4.37,-3.02 4.74,-2.48 4.97,-1.88 5.20,-1.28 5.27,-0.64 5.35,0.00 5.35,0.00 L 5.35,0 Z"></path></g></svg>