<?xml version="1.0" standalone="no"?>
<!DOCTYPE svg PUBLIC "-//W3C//DTD SVG 1.1//EN" "http://www.w3.org/Graphics/SVG/1.1/DTD/svg11.dtd">
<svg version="1.1" xmlns="http://www.w3.org/2000/svg" viewBox="0 0 361.44007841108726 79.92006308211074" width="1084.3202352332619" height="239.76018924633223"><!-- svg-source:excalidraw --><metadata></metadata><defs><style class="style-fonts">
      </style></defs><g transform="translate(141.61963008336045 47.897901886415866) rotate(0 17.165421942098874 -1.46586258153161)" stroke="none"><path fill="#1e1e1e" d="M 0,-5.22 Q 0,-5.22 1.93,-5.29 3.87,-5.36 6.93,-5.50 9.99,-5.64 12.36,-5.76 14.73,-5.88 17.17,-6.05 19.61,-6.22 22.08,-6.35 24.55,-6.49 26.72,-7.16 28.89,-7.84 30.05,-8.44 31.21,-9.04 32.27,-9.38 33.33,-9.72 34.44,-9.70 35.55,-9.68 36.59,-9.31 37.64,-8.94 38.51,-8.25 39.39,-7.56 39.99,-6.63 40.60,-5.71 40.88,-4.63 41.16,-3.56 41.08,-2.45 41.00,-1.34 40.57,-0.32 40.15,0.70 39.41,1.53 38.68,2.37 37.72,2.92 36.76,3.48 35.67,3.70 34.58,3.92 33.48,3.78 32.38,3.64 31.38,3.16 30.38,2.68 29.59,1.90 28.79,1.13 28.29,0.14 27.79,-0.84 27.63,-1.94 27.46,-3.04 27.66,-4.13 27.86,-5.23 28.40,-6.20 28.93,-7.17 29.75,-7.92 30.57,-8.67 31.58,-9.12 32.60,-9.57 33.71,-9.67 34.81,-9.77 35.89,-9.52 36.97,-9.26 37.91,-8.67 38.86,-8.08 39.56,-7.22 40.26,-6.37 40.66,-5.33 41.05,-4.29 41.09,-3.18 41.13,-2.07 40.82,-1.01 40.51,0.05 39.87,0.96 39.23,1.87 38.33,2.52 37.44,3.18 37.44,3.18 37.44,3.18 35.61,4.08 33.78,4.98 31.29,5.47 28.79,5.95 26.67,6.22 24.56,6.49 22.08,6.35 19.61,6.22 17.17,6.05 14.73,5.88 12.36,5.76 9.99,5.64 6.93,5.50 3.87,5.36 1.93,5.29 0,5.22 -0.62,5.15 -1.25,5.07 -1.84,4.85 -2.43,4.63 -2.94,4.27 -3.46,3.91 -3.88,3.44 -4.30,2.97 -4.59,2.41 -4.88,1.85 -5.04,1.24 -5.19,0.63 -5.19,-0.00 -5.19,-0.63 -5.04,-1.24 -4.88,-1.85 -4.59,-2.41 -4.30,-2.97 -3.88,-3.44 -3.46,-3.91 -2.94,-4.27 -2.42,-4.63 -1.84,-4.85 -1.25,-5.07 -0.62,-5.15 0.00,-5.22 0.00,-5.22 L 0,-5.22 Z"></path></g><g transform="translate(10 27.889162835781974) rotate(0 14.94951683344118 21.015450123164385)" stroke="none"><path fill="#1e1e1e" d="M 0,-5.14 Q 0,-5.14 1.66,-5.23 3.33,-5.31 5.46,-5.49 7.59,-5.67 9.91,-5.84 12.22,-6.02 14.89,-5.78 17.56,-5.55 19.87,-4.65 22.18,-3.76 24.32,-2.76 26.45,-1.76 28.50,-0.11 30.56,1.52 32.09,3.19 33.63,4.87 35.15,7.25 36.66,9.64 36.28,13.39 35.90,17.13 34.60,18.98 33.30,20.83 32.00,22.80 30.70,24.77 29.30,26.49 27.91,28.22 26.10,30.07 24.29,31.91 22.71,33.82 21.12,35.74 19.25,37.71 17.37,39.67 15.17,43.07 12.97,46.47 12.10,47.34 11.23,48.20 10.13,48.75 9.03,49.29 7.81,49.45 6.59,49.61 5.39,49.38 4.18,49.15 3.11,48.54 2.04,47.93 1.23,47.01 0.41,46.10 -0.06,44.97 -0.55,43.84 -0.64,42.61 -0.74,41.39 -0.44,40.20 -0.14,39.01 0.51,37.97 1.18,36.94 2.14,36.17 3.10,35.41 4.25,34.99 5.41,34.57 6.63,34.54 7.86,34.51 9.04,34.87 10.21,35.23 11.20,35.95 12.20,36.67 12.91,37.67 13.63,38.67 13.98,39.85 14.34,41.02 14.31,42.25 14.27,43.48 13.84,44.63 13.42,45.78 12.64,46.74 11.87,47.69 10.83,48.35 9.80,49.01 8.60,49.30 7.41,49.59 6.19,49.49 4.96,49.39 3.84,48.90 2.71,48.41 1.80,47.59 0.89,46.77 0.28,45.69 -0.31,44.62 -0.54,43.42 -0.76,42.21 -0.59,40.99 -0.42,39.78 0.11,38.68 0.66,37.58 0.66,37.58 0.66,37.58 1.75,35.98 2.85,34.38 4.17,32.36 5.49,30.35 7.49,28.31 9.49,26.27 10.90,24.61 12.31,22.94 13.91,21.34 15.51,19.74 17.25,17.88 18.99,16.01 21.00,14.95 23.01,13.89 21.70,12.01 20.40,10.12 18.49,8.97 16.57,7.83 14.40,6.92 12.22,6.02 9.91,5.84 7.59,5.67 5.46,5.49 3.33,5.31 1.66,5.23 0,5.14 -0.61,5.07 -1.23,4.99 -1.81,4.77 -2.39,4.55 -2.90,4.20 -3.41,3.85 -3.82,3.38 -4.23,2.92 -4.52,2.37 -4.81,1.82 -4.96,1.22 -5.11,0.62 -5.11,-0.00 -5.11,-0.62 -4.96,-1.22 -4.81,-1.82 -4.52,-2.37 -4.23,-2.92 -3.82,-3.38 -3.41,-3.85 -2.90,-4.20 -2.39,-4.55 -1.81,-4.77 -1.23,-4.99 -0.61,-5.07 0.00,-5.14 0.00,-5.14 L 0,-5.14 Z"></path></g><g transform="translate(140.72255038859453 52.27563387527937) rotate(0 18.641665030977492 5.270145039164873)" stroke="none"><path fill="#1e1e1e" d="M 4.58,-2.08 Q 4.58,-2.08 5.15,-1.07 5.71,-0.06 7.28,1.49 8.86,3.05 10.77,4.24 12.68,5.43 15.26,5.40 17.84,5.37 20.12,5.30 22.39,5.22 24.70,4.76 27.00,4.29 28.12,2.44 29.24,0.58 29.80,-1.80 30.37,-4.19 30.97,-5.22 31.57,-6.26 32.47,-7.05 33.37,-7.83 34.47,-8.29 35.58,-8.75 36.77,-8.84 37.96,-8.92 39.12,-8.62 40.28,-8.32 41.28,-7.66 42.28,-7.01 43.02,-6.06 43.75,-5.12 44.15,-4.00 44.55,-2.87 44.57,-1.67 44.59,-0.48 44.23,0.65 43.86,1.79 43.15,2.75 42.44,3.72 41.46,4.40 40.48,5.09 39.34,5.43 38.19,5.76 37.00,5.72 35.80,5.67 34.68,5.25 33.57,4.82 32.64,4.06 31.72,3.30 31.09,2.28 30.45,1.27 30.18,0.11 29.91,-1.05 30.02,-2.24 30.13,-3.43 30.61,-4.52 31.10,-5.62 31.91,-6.50 32.72,-7.38 33.76,-7.95 34.81,-8.53 35.99,-8.74 37.17,-8.95 38.35,-8.78 39.53,-8.60 40.60,-8.06 41.66,-7.51 42.50,-6.66 43.33,-5.80 43.85,-4.72 44.37,-3.65 44.52,-2.46 44.66,-1.27 44.42,-0.10 44.19,1.06 44.19,1.06 44.19,1.06 43.52,4.01 42.85,6.96 41.53,9.38 40.20,11.81 38.58,13.40 36.95,14.98 34.68,16.26 32.42,17.54 30.07,18.30 27.73,19.06 25.54,19.04 23.36,19.01 21.12,18.94 18.87,18.87 16.21,18.70 13.55,18.53 11.15,17.96 8.76,17.38 6.56,16.10 4.35,14.82 2.69,13.27 1.02,11.72 -0.30,10.02 -1.63,8.31 -2.72,6.29 -3.80,4.26 -4.19,3.17 -4.58,2.08 -4.77,1.50 -4.95,0.92 -4.99,0.32 -5.03,-0.28 -4.92,-0.88 -4.81,-1.48 -4.57,-2.03 -4.32,-2.59 -3.95,-3.07 -3.57,-3.55 -3.10,-3.92 -2.62,-4.30 -2.07,-4.55 -1.51,-4.80 -0.92,-4.91 -0.32,-5.03 0.28,-4.99 0.89,-4.96 1.47,-4.78 2.05,-4.60 2.57,-4.29 3.09,-3.98 3.52,-3.55 3.95,-3.12 4.27,-2.60 4.58,-2.08 4.58,-2.08 L 4.58,-2.08 Z"></path></g><g transform="translate(322.25616423413055 34.30421733566425) rotate(0 14.521256935380109 -2.101596707783898)" stroke="none"><path fill="#1e1e1e" d="M -3.20,-4.21 Q -3.20,-4.21 -1.43,-5.61 0.33,-7.01 3.39,-9.64 6.45,-12.28 8.81,-14.53 11.18,-16.78 13.01,-18.56 14.84,-20.35 16.47,-21.96 18.10,-23.56 19.97,-25.24 21.84,-26.93 23.01,-27.82 24.18,-28.71 24.79,-29.24 25.40,-29.77 26.12,-30.14 26.84,-30.50 27.63,-30.69 28.41,-30.87 29.22,-30.86 30.03,-30.85 30.81,-30.65 31.59,-30.44 32.30,-30.06 33.01,-29.68 33.61,-29.13 34.20,-28.59 34.66,-27.92 35.11,-27.25 35.38,-26.49 35.66,-25.74 35.75,-24.93 35.83,-24.13 35.73,-23.33 35.62,-22.53 35.32,-21.78 35.03,-21.03 34.56,-20.37 34.10,-19.71 32.44,-17.53 30.79,-15.35 28.50,-13.32 26.21,-11.29 23.62,-9.55 21.03,-7.81 19.23,-6.60 17.43,-5.38 15.37,-3.97 13.31,-2.56 11.61,-1.21 9.91,0.13 8.46,1.87 7.00,3.60 5.83,-0.31 4.65,-4.24 2.74,-5.42 0.82,-6.60 2.90,-6.14 4.97,-5.68 7.10,-4.70 9.23,-3.72 11.29,-2.30 13.34,-0.88 15.62,0.74 17.90,2.37 19.97,3.63 22.03,4.89 23.93,6.09 25.82,7.30 27.60,8.68 29.38,10.06 32.01,12.74 34.65,15.43 35.24,16.52 35.82,17.60 36.03,18.82 36.24,20.03 36.05,21.25 35.86,22.47 35.30,23.56 34.73,24.66 33.84,25.51 32.95,26.37 31.84,26.90 30.72,27.42 29.50,27.57 28.27,27.71 27.06,27.46 25.86,27.20 24.79,26.57 23.73,25.95 22.93,25.01 22.12,24.08 21.65,22.94 21.19,21.80 21.11,20.57 21.03,19.34 21.35,18.14 21.67,16.95 22.36,15.93 23.04,14.90 24.02,14.15 24.99,13.39 26.16,12.99 27.32,12.58 28.56,12.57 29.79,12.56 30.96,12.95 32.13,13.33 33.12,14.07 34.11,14.81 34.81,15.82 35.51,16.84 35.85,18.02 36.19,19.21 36.13,20.44 36.08,21.67 35.63,22.82 35.18,23.97 34.39,24.92 33.60,25.87 32.55,26.51 31.50,27.15 30.30,27.43 29.09,27.70 27.87,27.58 26.64,27.46 25.52,26.95 24.39,26.44 23.49,25.60 22.59,24.76 22.59,24.76 22.59,24.76 20.89,23.02 19.18,21.28 17.32,19.95 15.45,18.62 13.61,17.50 11.77,16.39 9.84,15.10 7.91,13.81 5.74,12.26 3.57,10.71 1.22,9.48 -1.13,8.24 -2.92,7.08 -4.70,5.92 -5.66,3.38 -6.63,0.85 -6.01,-1.95 -5.40,-4.76 -3.94,-6.49 -2.48,-8.21 -0.71,-9.95 1.05,-11.69 3.13,-13.11 5.21,-14.53 7.16,-15.76 9.11,-17.00 11.24,-18.36 13.38,-19.72 15.63,-21.16 17.89,-22.60 19.58,-23.96 21.28,-25.33 22.73,-27.02 24.18,-28.71 24.79,-29.24 25.40,-29.77 26.12,-30.14 26.84,-30.50 27.63,-30.69 28.41,-30.87 29.22,-30.86 30.03,-30.85 30.81,-30.65 31.59,-30.44 32.30,-30.06 33.01,-29.68 33.61,-29.13 34.20,-28.59 34.65,-27.92 35.11,-27.25 35.38,-26.49 35.66,-25.74 35.75,-24.93 35.83,-24.13 35.73,-23.33 35.62,-22.53 35.33,-21.78 35.03,-21.03 34.56,-20.37 34.10,-19.71 32.31,-18.47 30.53,-17.22 28.53,-15.82 26.53,-14.42 24.65,-12.93 22.77,-11.44 20.84,-9.87 18.91,-8.30 16.20,-6.04 13.49,-3.79 10.17,-1.12 6.85,1.54 5.02,2.87 3.20,4.21 2.65,4.53 2.10,4.85 1.49,5.04 0.88,5.22 0.24,5.25 -0.39,5.28 -1.01,5.15 -1.64,5.03 -2.22,4.76 -2.80,4.49 -3.29,4.09 -3.79,3.69 -4.18,3.18 -4.56,2.67 -4.82,2.09 -5.07,1.50 -5.18,0.87 -5.29,0.24 -5.24,-0.38 -5.19,-1.02 -4.99,-1.63 -4.79,-2.23 -4.46,-2.78 -4.12,-3.32 -3.66,-3.76 -3.20,-4.21 -3.20,-4.21 L -3.20,-4.21 Z"></path></g></svg>