<?xml version="1.0" standalone="no"?>
<!DOCTYPE svg PUBLIC "-//W3C//DTD SVG 1.1//EN" "http://www.w3.org/Graphics/SVG/1.1/DTD/svg11.dtd">
<svg version="1.1" xmlns="http://www.w3.org/2000/svg" viewBox="0 0 342.5154956074452 72.27195903379544" width="1027.5464868223355" height="216.81587710138632"><!-- svg-source:excalidraw --><metadata></metadata><defs><style class="style-fonts">
      </style></defs><g transform="translate(17.976295520192537 35.494615222273694) rotate(0 4.340359806784278 5.766126476128363)" stroke="none"><path fill="#1e1e1e" d="M 5.00,0.15 Q 5.00,0.15 5.02,2.10 5.05,4.05 5.23,6.55 5.41,9.05 3.60,7.90 1.78,6.76 1.97,4.55 2.15,2.34 3.41,4.30 4.66,6.26 6.59,5.11 8.51,3.96 6.85,0.84 5.19,-2.27 2.74,-2.54 0.29,-2.80 1.23,2.51 2.18,7.84 -0.04,7.24 -2.27,6.65 -3.28,6.11 -4.28,5.57 -5.06,4.74 -5.84,3.91 -6.31,2.88 -6.78,1.84 -6.90,0.71 -7.01,-0.41 -6.76,-1.52 -6.51,-2.63 -5.92,-3.60 -5.33,-4.58 -4.46,-5.31 -3.59,-6.04 -2.53,-6.45 -1.47,-6.87 -0.33,-6.93 0.79,-6.98 1.89,-6.67 2.98,-6.36 3.92,-5.72 4.86,-5.07 5.54,-4.17 6.23,-3.26 6.58,-2.18 6.94,-1.10 6.93,0.03 6.93,1.17 6.56,2.25 6.19,3.32 5.50,4.22 4.80,5.13 3.86,5.76 2.91,6.39 1.82,6.69 0.72,6.99 -0.41,6.92 -1.54,6.85 -2.60,6.43 -3.65,6.00 -4.52,5.26 -5.38,4.52 -5.96,3.54 -6.54,2.56 -6.78,1.45 -7.02,0.34 -6.89,-0.78 -6.76,-1.91 -6.28,-2.94 -5.79,-3.97 -5.01,-4.79 -4.22,-5.62 -3.21,-6.14 -2.20,-6.67 -1.08,-6.85 0.03,-7.03 1.15,-6.84 2.28,-6.65 2.28,-6.65 2.27,-6.65 5.04,-5.53 7.80,-4.41 9.20,1.17 10.60,6.75 8.53,8.53 6.46,10.30 3.47,10.68 0.48,11.06 -2.02,9.02 -4.53,6.98 -4.94,3.77 -5.35,0.55 -3.98,-2.01 -2.61,-4.58 -0.79,-5.74 1.02,-6.89 3.60,-7.10 6.18,-7.31 8.47,-6.70 10.75,-6.09 12.40,-4.69 14.04,-3.30 14.85,-0.86 15.66,1.57 15.51,3.86 15.37,6.15 14.75,8.34 14.13,10.54 12.63,12.77 11.13,15.01 9.22,16.28 7.30,17.56 4.79,17.57 2.29,17.58 -1.39,15.08 -5.08,12.59 -5.41,10.38 -5.74,8.16 -5.52,5.95 -5.29,3.73 -5.14,1.79 -5.00,-0.15 -4.91,-0.75 -4.82,-1.34 -4.59,-1.90 -4.36,-2.46 -4.00,-2.94 -3.64,-3.43 -3.18,-3.82 -2.71,-4.20 -2.17,-4.47 -1.63,-4.73 -1.04,-4.86 -0.44,-4.98 0.15,-4.96 0.75,-4.95 1.33,-4.78 1.92,-4.62 2.44,-4.32 2.97,-4.03 3.41,-3.61 3.85,-3.20 4.17,-2.69 4.50,-2.18 4.70,-1.61 4.89,-1.04 4.95,-0.44 5.00,0.15 5.00,0.15 L 5.00,0.15 Z"></path></g><g transform="translate(323.33337369160455 25.026688629441026) rotate(0 0.7182664882240601 4.64950662505629)" stroke="none"><path fill="#1e1e1e" d="M 4.59,1.84 Q 4.59,1.84 4.09,3.35 3.59,4.87 1.44,4.16 -0.70,3.45 -1.00,5.59 -1.29,7.72 1.51,6.89 4.33,6.06 2.56,2.99 0.79,-0.07 -1.58,0.76 -3.97,1.59 -5.26,2.11 -6.55,2.63 -6.80,1.51 -7.04,0.40 -6.92,-0.73 -6.80,-1.86 -6.33,-2.90 -5.85,-3.94 -5.07,-4.77 -4.28,-5.60 -3.28,-6.14 -2.27,-6.68 -1.14,-6.87 -0.01,-7.06 1.10,-6.87 2.23,-6.69 3.24,-6.16 4.25,-5.63 5.04,-4.80 5.83,-3.97 6.31,-2.94 6.79,-1.90 6.92,-0.77 7.05,0.36 6.80,1.47 6.56,2.59 5.98,3.57 5.39,4.55 4.52,5.29 3.65,6.04 2.59,6.46 1.53,6.89 0.39,6.95 -0.74,7.02 -1.84,6.71 -2.94,6.41 -3.89,5.77 -4.84,5.13 -5.53,4.23 -6.22,3.32 -6.59,2.24 -6.96,1.16 -6.96,0.01 -6.97,-1.12 -6.60,-2.20 -6.24,-3.29 -5.55,-4.20 -4.86,-5.11 -3.92,-5.75 -2.98,-6.40 -1.88,-6.70 -0.78,-7.01 0.35,-6.95 1.50,-6.90 2.56,-6.48 3.62,-6.06 4.49,-5.32 5.37,-4.58 5.96,-3.60 6.55,-2.63 6.55,-2.63 6.55,-2.63 7.68,0.61 8.80,3.86 8.53,6.14 8.26,8.43 6.78,10.35 5.29,12.28 1.49,12.88 -2.29,13.49 -4.65,11.79 -7.01,10.08 -7.96,7.27 -8.90,4.45 -8.23,2.12 -7.57,-0.20 -5.29,-2.34 -3.02,-4.48 -0.81,-4.76 1.38,-5.04 3.73,-4.12 6.08,-3.19 7.67,-1.50 9.27,0.19 9.59,3.44 9.91,6.68 9.42,8.90 8.93,11.11 7.34,12.80 5.76,14.48 3.09,14.87 0.42,15.26 -1.80,14.85 -4.03,14.44 -5.57,12.90 -7.11,11.36 -7.30,8.60 -7.49,5.84 -6.73,3.44 -5.96,1.04 -5.28,-0.39 -4.59,-1.84 -4.31,-2.36 -4.02,-2.88 -3.62,-3.32 -3.21,-3.76 -2.71,-4.09 -2.22,-4.42 -1.65,-4.62 -1.09,-4.83 -0.50,-4.89 0.09,-4.95 0.68,-4.87 1.27,-4.78 1.82,-4.56 2.38,-4.34 2.86,-3.99 3.35,-3.64 3.73,-3.19 4.12,-2.73 4.39,-2.20 4.66,-1.67 4.79,-1.08 4.92,-0.50 4.91,0.09 4.90,0.68 4.75,1.26 4.59,1.84 4.59,1.84 L 4.59,1.84 Z"></path></g><g transform="translate(156.95086370637767 60.63240426624333) rotate(0 10.787839718208716 -2.076359227200129)" stroke="none"><path fill="#1e1e1e" d="M -2.98,-3.88 Q -2.98,-3.88 -2.23,-4.58 -1.47,-5.28 0.38,-6.64 2.24,-8.00 4.53,-8.94 6.82,-9.88 9.66,-9.95 12.49,-10.02 14.86,-8.80 17.23,-7.59 18.73,-7.35 20.23,-7.12 21.04,-7.02 21.85,-6.92 22.61,-6.63 23.37,-6.34 24.04,-5.88 24.71,-5.41 25.25,-4.80 25.79,-4.19 26.16,-3.47 26.54,-2.75 26.73,-1.96 26.93,-1.17 26.93,-0.36 26.93,0.45 26.73,1.24 26.53,2.03 26.16,2.75 25.78,3.47 25.24,4.08 24.70,4.69 24.02,5.15 23.35,5.61 22.59,5.90 21.83,6.18 21.02,6.28 20.21,6.38 18.79,6.06 17.36,5.74 16.46,5.13 15.56,4.51 14.90,3.64 14.24,2.76 13.90,1.73 13.56,0.69 13.56,-0.39 13.56,-1.48 13.92,-2.52 14.27,-3.55 14.94,-4.42 15.60,-5.29 16.51,-5.90 17.41,-6.50 18.47,-6.79 19.52,-7.08 20.61,-7.02 21.70,-6.95 22.72,-6.54 23.73,-6.14 24.56,-5.42 25.39,-4.71 25.95,-3.78 26.51,-2.84 26.74,-1.77 26.97,-0.70 26.84,0.37 26.72,1.46 26.26,2.45 25.80,3.44 25.04,4.23 24.29,5.02 23.32,5.53 22.35,6.03 21.27,6.21 20.19,6.38 19.12,6.20 18.04,6.02 17.08,5.50 16.11,4.98 15.37,4.19 14.62,3.39 14.16,2.40 13.71,1.40 13.60,0.32 13.48,-0.76 13.72,-1.83 13.96,-2.89 14.53,-3.82 15.10,-4.76 15.93,-5.46 16.77,-6.17 17.78,-6.57 18.80,-6.97 19.89,-7.02 20.98,-7.07 20.61,-7.10 20.23,-7.12 21.04,-7.02 21.85,-6.92 22.61,-6.63 23.37,-6.34 24.04,-5.88 24.71,-5.41 25.25,-4.80 25.78,-4.19 26.16,-3.47 26.54,-2.75 26.73,-1.96 26.93,-1.17 26.93,-0.36 26.93,0.45 26.73,1.24 26.53,2.03 26.16,2.75 25.78,3.47 25.24,4.08 24.70,4.69 24.03,5.15 23.35,5.61 22.59,5.90 21.83,6.18 21.02,6.28 20.22,6.38 18.16,6.31 16.11,6.23 14.09,5.42 12.07,4.60 10.43,2.97 8.80,1.33 6.75,2.06 4.71,2.79 3.85,3.34 2.98,3.88 2.47,4.18 1.96,4.48 1.40,4.65 0.83,4.82 0.24,4.85 -0.34,4.88 -0.92,4.77 -1.50,4.66 -2.04,4.41 -2.57,4.16 -3.03,3.80 -3.50,3.43 -3.86,2.96 -4.21,2.49 -4.45,1.95 -4.69,1.41 -4.79,0.82 -4.89,0.24 -4.85,-0.34 -4.81,-0.93 -4.63,-1.49 -4.44,-2.05 -4.13,-2.55 -3.82,-3.06 -3.40,-3.47 -2.98,-3.88 -2.98,-3.88 L -2.98,-3.88 Z"></path></g><g transform="translate(155.21902630650555 59.96489322579532) rotate(0 -5.378539420384357 1.153532904000059)" stroke="none"><path fill="#1e1e1e" d="M 1.18,4.68 Q 1.18,4.68 -0.13,5.12 -1.44,5.56 -3.46,6.61 -5.47,7.67 -9.52,7.13 -13.57,6.60 -14.28,6.02 -15.00,5.44 -15.49,4.67 -15.98,3.89 -16.20,3.00 -16.42,2.10 -16.34,1.19 -16.26,0.27 -15.90,-0.56 -15.53,-1.41 -14.91,-2.09 -14.30,-2.77 -13.49,-3.22 -12.69,-3.67 -11.79,-3.84 -10.89,-4.01 -9.97,-3.88 -9.06,-3.75 -8.24,-3.34 -7.42,-2.93 -6.77,-2.28 -6.12,-1.63 -5.72,-0.80 -5.31,0.01 -5.19,0.93 -5.07,1.84 -5.25,2.74 -5.43,3.64 -5.88,4.44 -6.34,5.24 -7.02,5.85 -7.71,6.46 -8.56,6.82 -9.40,7.18 -10.32,7.25 -11.23,7.32 -12.13,7.10 -13.02,6.87 -13.79,6.38 -14.56,5.88 -15.14,5.16 -15.71,4.44 -16.02,3.58 -16.34,2.71 -16.36,1.79 -16.38,0.87 -16.11,0.00 -15.83,-0.87 -15.29,-1.62 -14.75,-2.36 -14.01,-2.90 -13.26,-3.43 -12.38,-3.70 -11.50,-3.96 -10.58,-3.93 -9.66,-3.90 -8.80,-3.58 -7.94,-3.26 -7.94,-3.26 -7.94,-3.26 -8.03,-3.11 -8.12,-2.96 -6.01,-3.59 -3.91,-4.21 -2.54,-4.45 -1.18,-4.68 -0.60,-4.76 -0.02,-4.83 0.55,-4.76 1.13,-4.69 1.67,-4.49 2.22,-4.29 2.70,-3.96 3.18,-3.63 3.57,-3.20 3.96,-2.76 4.23,-2.25 4.51,-1.73 4.65,-1.17 4.79,-0.60 4.79,-0.02 4.80,0.55 4.66,1.12 4.52,1.69 4.25,2.20 3.99,2.72 3.60,3.16 3.22,3.60 2.74,3.93 2.26,4.26 1.72,4.47 1.18,4.68 1.18,4.68 L 1.18,4.68 Z"></path></g><g transform="translate(10 17.92400202854452) rotate(0 9.505111128960635 -0.10458698329600224)" stroke="none"><path fill="#1e1e1e" d="M -0.15,-5.10 Q -0.15,-5.10 1.76,-5.24 3.68,-5.38 6.79,-5.56 9.90,-5.74 12.13,-5.93 14.35,-6.11 16.68,-6.18 19.01,-6.25 19.97,-6.09 20.94,-5.94 21.80,-5.48 22.67,-5.02 23.34,-4.31 24.01,-3.60 24.42,-2.71 24.83,-1.82 24.94,-0.85 25.04,0.11 24.83,1.07 24.62,2.02 24.12,2.86 23.61,3.70 22.87,4.34 22.12,4.97 21.21,5.33 20.30,5.69 19.33,5.75 18.35,5.80 17.41,5.54 16.47,5.27 15.66,4.73 14.85,4.18 14.25,3.40 13.66,2.62 13.35,1.69 13.04,0.76 13.04,-0.21 13.04,-1.18 13.35,-2.11 13.66,-3.04 14.25,-3.82 14.85,-4.60 15.66,-5.14 16.47,-5.69 17.41,-5.96 18.35,-6.22 19.33,-6.16 20.31,-6.11 21.22,-5.75 22.12,-5.39 22.87,-4.75 23.62,-4.12 24.12,-3.28 24.62,-2.44 24.83,-1.49 25.04,-0.53 24.94,0.43 24.83,1.41 24.42,2.29 24.01,3.18 23.34,3.89 22.66,4.60 21.80,5.06 20.93,5.52 19.97,5.68 19.00,5.83 19.00,5.83 19.01,5.83 16.68,5.76 14.36,5.69 12.18,5.52 10.00,5.35 7.01,5.25 4.01,5.14 2.08,5.12 0.15,5.10 -0.45,5.05 -1.06,4.99 -1.64,4.79 -2.23,4.59 -2.74,4.26 -3.26,3.92 -3.68,3.47 -4.11,3.03 -4.41,2.49 -4.71,1.95 -4.88,1.36 -5.04,0.77 -5.06,0.15 -5.08,-0.45 -4.95,-1.05 -4.83,-1.66 -4.56,-2.21 -4.29,-2.76 -3.89,-3.24 -3.50,-3.71 -3.00,-4.08 -2.51,-4.44 -1.94,-4.68 -1.37,-4.91 -0.76,-5.01 -0.15,-5.10 -0.15,-5.10 L -0.15,-5.10 Z"></path></g><g transform="translate(313.1945884873799 10) rotate(0 9.660453560032636 0)" stroke="none"><path fill="#1e1e1e" d="M 0,-5.21 Q 0,-5.21 1.52,-5.29 3.05,-5.38 5.71,-5.52 8.38,-5.66 10.86,-5.82 13.35,-5.98 16.33,-6.09 19.32,-6.20 20.31,-6.04 21.30,-5.87 22.18,-5.40 23.07,-4.93 23.76,-4.20 24.45,-3.48 24.87,-2.57 25.29,-1.65 25.40,-0.66 25.51,0.33 25.29,1.31 25.08,2.29 24.56,3.15 24.04,4.01 23.28,4.66 22.51,5.31 21.58,5.68 20.65,6.05 19.65,6.11 18.64,6.16 17.68,5.89 16.71,5.62 15.88,5.06 15.05,4.50 14.44,3.70 13.83,2.90 13.51,1.95 13.19,1.00 13.19,-0.00 13.19,-1.00 13.52,-1.95 13.84,-2.90 14.44,-3.70 15.05,-4.50 15.88,-5.06 16.71,-5.63 17.68,-5.89 18.65,-6.16 19.65,-6.11 20.65,-6.05 21.58,-5.68 22.52,-5.31 23.28,-4.66 24.04,-4.01 24.56,-3.15 25.08,-2.29 25.29,-1.31 25.51,-0.33 25.40,0.66 25.29,1.66 24.87,2.57 24.45,3.48 23.76,4.21 23.07,4.93 22.18,5.40 21.29,5.87 20.30,6.04 19.31,6.20 19.31,6.20 19.32,6.20 16.33,6.09 13.35,5.98 10.86,5.82 8.38,5.66 5.71,5.52 3.05,5.38 1.52,5.29 0,5.21 -0.62,5.13 -1.24,5.06 -1.83,4.83 -2.42,4.61 -2.93,4.25 -3.45,3.90 -3.87,3.43 -4.29,2.96 -4.58,2.40 -4.87,1.84 -5.02,1.23 -5.17,0.62 -5.17,-0.00 -5.17,-0.62 -5.02,-1.23 -4.87,-1.84 -4.58,-2.40 -4.28,-2.96 -3.87,-3.43 -3.45,-3.90 -2.93,-4.25 -2.42,-4.61 -1.83,-4.83 -1.24,-5.06 -0.62,-5.13 0.00,-5.21 0.00,-5.21 L 0,-5.21 Z"></path></g></svg>