<?xml version="1.0" standalone="no"?>
<!DOCTYPE svg PUBLIC "-//W3C//DTD SVG 1.1//EN" "http://www.w3.org/Graphics/SVG/1.1/DTD/svg11.dtd">
<svg version="1.1" xmlns="http://www.w3.org/2000/svg" viewBox="0 0 327.3131789490848 77.670570279635" width="981.9395368472543" height="233.011710838905"><!-- svg-source:excalidraw --><metadata></metadata><defs><style class="style-fonts">
      </style></defs><g transform="translate(24.07662843263961 39.30142173042634) rotate(0 -0.8124285330356997 2.7482150376763457)" stroke="none"><path fill="#1e1e1e" d="M 4.96,0.25 Q 4.96,0.25 4.99,1.53 5.02,2.80 3.65,1.06 2.27,-0.67 0.50,0.58 -1.26,1.85 1.21,2.81 3.70,3.78 2.91,1.72 2.12,-0.33 -0.14,0.48 -2.40,1.31 -1.47,3.42 -0.55,5.54 -1.04,3.26 -1.54,0.97 0.05,2.87 1.65,4.76 3.71,4.71 5.78,4.66 4.88,5.46 3.99,6.27 2.88,6.74 1.77,7.21 0.58,7.31 -0.61,7.40 -1.78,7.11 -2.95,6.82 -3.96,6.17 -4.97,5.52 -5.72,4.58 -6.47,3.64 -6.89,2.51 -7.30,1.38 -7.33,0.18 -7.36,-1.01 -7.00,-2.16 -6.65,-3.31 -5.94,-4.29 -5.24,-5.26 -4.26,-5.96 -3.28,-6.66 -2.13,-7.01 -0.98,-7.36 0.21,-7.33 1.41,-7.29 2.54,-6.87 3.67,-6.46 4.60,-5.70 5.54,-4.95 6.18,-3.93 6.83,-2.92 7.12,-1.75 7.40,-0.58 7.30,0.61 7.20,1.80 6.73,2.91 6.25,4.01 5.44,4.91 4.64,5.80 3.59,6.39 2.54,6.98 1.36,7.20 0.18,7.43 -1.00,7.26 -2.19,7.10 -3.27,6.56 -4.35,6.02 -5.19,5.17 -6.04,4.32 -6.57,3.24 -7.11,2.16 -7.27,0.97 -7.42,-0.21 -7.20,-1.39 -6.97,-2.57 -6.37,-3.62 -5.78,-4.67 -5.78,-4.66 -5.78,-4.66 -2.16,-7.27 1.45,-9.87 4.28,-9.43 7.10,-8.98 8.67,-7.35 10.24,-5.72 10.97,-3.36 11.70,-0.99 11.44,1.52 11.18,4.05 10.04,6.89 8.89,9.73 6.88,11.66 4.87,13.60 2.00,14.39 -0.85,15.19 -4.17,14.71 -7.49,14.24 -9.51,12.57 -11.53,10.91 -12.35,7.32 -13.17,3.74 -12.39,1.11 -11.61,-1.50 -10.45,-3.32 -9.30,-5.14 -6.35,-6.76 -3.40,-8.38 -0.26,-8.29 2.87,-8.20 5.01,-7.23 7.14,-6.25 8.62,-4.55 10.10,-2.86 10.58,-0.11 11.06,2.63 10.38,5.23 9.70,7.84 8.34,9.49 6.99,11.15 3.43,11.88 -0.13,12.62 -2.39,11.26 -4.66,9.89 -5.76,7.43 -6.87,4.98 -6.80,2.30 -6.73,-0.37 -5.31,-2.87 -3.89,-5.38 -0.74,-6.27 2.39,-7.16 4.40,-6.41 6.40,-5.66 8.01,-4.06 9.63,-2.46 10.12,-0.10 10.61,2.25 10.03,4.38 9.45,6.50 7.54,8.15 5.64,9.80 2.96,9.96 0.28,10.13 -1.93,8.67 -4.15,7.22 -4.72,4.74 -5.29,2.27 -5.12,1.00 -4.96,-0.25 -4.86,-0.84 -4.75,-1.43 -4.51,-1.98 -4.27,-2.53 -3.91,-3.00 -3.54,-3.48 -3.07,-3.85 -2.60,-4.22 -2.06,-4.48 -1.52,-4.73 -0.93,-4.84 -0.34,-4.95 0.25,-4.92 0.85,-4.89 1.42,-4.72 1.99,-4.55 2.51,-4.24 3.02,-3.93 3.45,-3.51 3.88,-3.09 4.19,-2.58 4.51,-2.07 4.69,-1.50 4.88,-0.93 4.92,-0.34 4.96,0.25 4.96,0.25 L 4.96,0.25 Z"></path></g><g transform="translate(309.17217698224545 33.423852343279066) rotate(0 2.5342420907039696 1.0698647348618522)" stroke="none"><path fill="#1e1e1e" d="M 4.04,-2.91 Q 4.04,-2.91 4.71,-2.14 5.37,-1.37 3.14,-1.91 0.91,-2.45 2.25,-0.00 3.59,2.45 1.67,3.44 -0.23,4.42 -0.73,5.66 -1.23,6.89 -2.30,6.52 -3.37,6.14 -4.26,5.44 -5.16,4.74 -5.78,3.79 -6.40,2.84 -6.69,1.74 -6.97,0.65 -6.90,-0.47 -6.82,-1.61 -6.38,-2.65 -5.95,-3.70 -5.20,-4.55 -4.45,-5.41 -3.47,-5.98 -2.49,-6.55 -1.38,-6.77 -0.27,-7.00 0.85,-6.86 1.97,-6.72 2.99,-6.23 4.02,-5.74 4.83,-4.94 5.64,-4.15 6.16,-3.14 6.67,-2.13 6.84,-1.01 7.00,0.10 6.80,1.22 6.60,2.33 6.06,3.33 5.51,4.32 4.67,5.09 3.84,5.86 2.80,6.32 1.77,6.78 0.64,6.88 -0.48,6.99 -1.59,6.73 -2.69,6.47 -3.65,5.87 -4.61,5.27 -5.34,4.39 -6.06,3.52 -6.46,2.46 -6.86,1.40 -6.91,0.26 -6.95,-0.86 -6.63,-1.95 -6.31,-3.04 -5.66,-3.96 -5.01,-4.89 -4.10,-5.57 -3.18,-6.24 -2.10,-6.58 -1.02,-6.93 0.10,-6.91 1.24,-6.89 1.23,-6.89 1.23,-6.89 5.88,-5.58 10.53,-4.26 12.13,-2.20 13.74,-0.14 14.05,2.38 14.35,4.91 13.80,7.17 13.25,9.44 11.90,11.16 10.55,12.88 8.32,13.83 6.08,14.79 2.89,14.34 -0.29,13.89 -2.06,12.67 -3.82,11.45 -5.10,9.42 -6.38,7.40 -6.71,3.63 -7.03,-0.14 -6.05,-3.50 -5.07,-6.86 -3.00,-8.04 -0.94,-9.23 3.43,-9.14 7.81,-9.05 10.79,-6.31 13.78,-3.56 14.19,0.66 14.60,4.89 12.96,7.57 11.31,10.24 8.06,11.49 4.82,12.74 2.51,12.55 0.19,12.36 -2.93,11.08 -6.06,9.81 -7.47,7.86 -8.88,5.92 -9.23,2.98 -9.58,0.04 -9.25,-2.54 -8.92,-5.12 -6.99,-7.86 -5.07,-10.61 -2.21,-11.23 0.64,-11.86 3.67,-10.54 6.70,-9.22 8.19,-6.93 9.69,-4.63 9.68,-2.18 9.67,0.27 8.92,2.51 8.18,4.75 5.11,6.24 2.05,7.73 -0.46,6.20 -2.99,4.68 -3.52,3.79 -4.04,2.91 -4.33,2.38 -4.62,1.86 -4.78,1.27 -4.93,0.69 -4.95,0.09 -4.96,-0.50 -4.82,-1.08 -4.69,-1.67 -4.42,-2.21 -4.15,-2.75 -3.76,-3.20 -3.38,-3.66 -2.89,-4.01 -2.40,-4.36 -1.84,-4.59 -1.28,-4.81 -0.69,-4.90 -0.09,-4.98 0.50,-4.92 1.09,-4.86 1.66,-4.66 2.23,-4.46 2.73,-4.12 3.23,-3.79 3.64,-3.35 4.04,-2.91 4.04,-2.91 L 4.04,-2.91 Z"></path></g><g transform="translate(126.29366604999291 49.12769381053266) rotate(0 17.165421942098874 -1.46586258153161)" stroke="none"><path fill="#1e1e1e" d="M 0,-5.22 Q 0,-5.22 1.93,-5.29 3.87,-5.36 6.93,-5.50 9.99,-5.64 12.36,-5.76 14.73,-5.88 17.17,-6.05 19.61,-6.22 22.08,-6.35 24.55,-6.49 26.72,-7.16 28.89,-7.84 30.05,-8.44 31.21,-9.04 32.27,-9.38 33.33,-9.72 34.44,-9.70 35.55,-9.68 36.59,-9.31 37.64,-8.94 38.51,-8.25 39.39,-7.56 39.99,-6.63 40.60,-5.71 40.88,-4.63 41.16,-3.56 41.08,-2.45 41.00,-1.34 40.57,-0.32 40.15,0.70 39.41,1.53 38.68,2.37 37.72,2.92 36.76,3.48 35.67,3.70 34.58,3.92 33.48,3.78 32.38,3.64 31.38,3.16 30.38,2.68 29.59,1.90 28.79,1.13 28.29,0.14 27.79,-0.84 27.63,-1.94 27.46,-3.04 27.66,-4.13 27.86,-5.23 28.40,-6.20 28.93,-7.17 29.75,-7.92 30.57,-8.67 31.58,-9.12 32.60,-9.57 33.71,-9.67 34.81,-9.77 35.89,-9.52 36.97,-9.26 37.91,-8.67 38.86,-8.08 39.56,-7.22 40.26,-6.37 40.66,-5.33 41.05,-4.29 41.09,-3.18 41.13,-2.07 40.82,-1.01 40.51,0.05 39.87,0.96 39.23,1.87 38.33,2.52 37.44,3.18 37.44,3.18 37.44,3.18 35.61,4.08 33.78,4.98 31.29,5.47 28.79,5.95 26.67,6.22 24.56,6.49 22.08,6.35 19.61,6.22 17.17,6.05 14.73,5.88 12.36,5.76 9.99,5.64 6.93,5.50 3.87,5.36 1.93,5.29 0,5.22 -0.62,5.15 -1.25,5.07 -1.84,4.85 -2.43,4.63 -2.94,4.27 -3.46,3.91 -3.88,3.44 -4.30,2.97 -4.59,2.41 -4.88,1.85 -5.04,1.24 -5.19,0.63 -5.19,-0.00 -5.19,-0.63 -5.04,-1.24 -4.88,-1.85 -4.59,-2.41 -4.30,-2.97 -3.88,-3.44 -3.46,-3.91 -2.94,-4.27 -2.42,-4.63 -1.84,-4.85 -1.25,-5.07 -0.62,-5.15 0.00,-5.22 0.00,-5.22 L 0,-5.22 Z"></path></g><g transform="translate(112.10274736185806 34.6915140679003) rotate(0 5.9261915261142235 16.48952810586735)" stroke="none"><path fill="#1e1e1e" d="M 2.70,-4.44 Q 2.70,-4.44 3.78,-3.87 4.87,-3.31 7.20,-1.40 9.53,0.50 11.28,3.15 13.03,5.80 14.17,7.97 15.30,10.15 16.37,12.96 17.44,15.77 17.87,18.25 18.29,20.73 18.46,22.89 18.63,25.06 18.54,28.09 18.44,31.13 17.29,33.24 16.15,35.36 12.54,37.63 8.93,39.90 7.79,39.95 6.65,39.99 5.55,39.67 4.45,39.34 3.52,38.69 2.58,38.03 1.90,37.11 1.23,36.19 0.88,35.10 0.53,34.01 0.55,32.86 0.57,31.72 0.95,30.64 1.33,29.56 2.04,28.66 2.74,27.76 3.70,27.14 4.66,26.51 5.77,26.22 6.87,25.93 8.01,26.01 9.15,26.09 10.21,26.53 11.27,26.98 12.13,27.73 12.99,28.48 13.56,29.47 14.13,30.46 14.36,31.58 14.59,32.70 14.45,33.84 14.31,34.97 13.81,36.01 13.31,37.04 12.51,37.85 11.71,38.67 10.69,39.19 9.67,39.71 8.54,39.88 7.41,40.04 6.28,39.84 5.16,39.64 4.16,39.08 3.15,38.53 2.38,37.69 1.61,36.85 1.15,35.80 0.68,34.76 0.58,33.62 0.47,32.48 0.74,31.36 1.00,30.25 1.60,29.28 2.21,28.31 3.09,27.58 3.98,26.86 5.05,26.45 6.12,26.05 6.12,26.05 6.11,26.05 5.52,27.43 4.92,28.81 5.00,26.62 5.08,24.43 4.96,21.97 4.84,19.51 4.31,17.28 3.77,15.05 2.74,12.38 1.70,9.72 0.49,7.78 -0.72,5.84 -1.71,5.14 -2.70,4.44 -3.19,4.05 -3.68,3.66 -4.07,3.17 -4.45,2.67 -4.71,2.10 -4.96,1.53 -5.07,0.91 -5.18,0.29 -5.14,-0.32 -5.10,-0.95 -4.92,-1.54 -4.73,-2.14 -4.40,-2.68 -4.08,-3.21 -3.63,-3.65 -3.19,-4.10 -2.65,-4.42 -2.11,-4.74 -1.52,-4.93 -0.92,-5.11 -0.29,-5.15 0.32,-5.18 0.94,-5.07 1.56,-4.95 2.13,-4.69 2.70,-4.44 2.70,-4.44 L 2.70,-4.44 Z"></path></g><g transform="translate(10 16.804568325942455) rotate(0 12.231682124881559 0)" stroke="none"><path fill="#1e1e1e" d="M 0,-5.23 Q 0,-5.23 2.87,-5.20 5.74,-5.18 8.94,-5.33 12.14,-5.48 14.68,-5.62 17.21,-5.76 20.83,-5.88 24.46,-6.01 25.42,-5.86 26.38,-5.70 27.24,-5.24 28.10,-4.79 28.77,-4.08 29.44,-3.37 29.85,-2.49 30.26,-1.60 30.36,-0.64 30.47,0.32 30.26,1.27 30.05,2.22 29.55,3.06 29.04,3.89 28.30,4.52 27.56,5.15 26.66,5.51 25.75,5.87 24.78,5.92 23.81,5.98 22.87,5.72 21.93,5.46 21.13,4.91 20.32,4.36 19.73,3.59 19.14,2.81 18.83,1.89 18.52,0.97 18.52,-0.00 18.52,-0.97 18.83,-1.89 19.14,-2.81 19.73,-3.59 20.32,-4.36 21.13,-4.91 21.93,-5.46 22.87,-5.72 23.81,-5.98 24.78,-5.92 25.75,-5.87 26.66,-5.51 27.56,-5.15 28.30,-4.52 29.05,-3.89 29.55,-3.06 30.05,-2.22 30.26,-1.27 30.47,-0.32 30.36,0.64 30.26,1.61 29.85,2.49 29.44,3.37 28.77,4.08 28.10,4.79 27.24,5.24 26.38,5.70 25.42,5.86 24.46,6.01 24.46,6.01 24.46,6.01 20.83,5.88 17.21,5.76 14.68,5.62 12.14,5.48 8.94,5.33 5.74,5.18 2.87,5.20 0,5.23 -0.62,5.16 -1.25,5.08 -1.84,4.86 -2.43,4.63 -2.95,4.27 -3.47,3.91 -3.89,3.44 -4.30,2.97 -4.60,2.41 -4.89,1.85 -5.04,1.24 -5.19,0.63 -5.19,-0.00 -5.19,-0.63 -5.04,-1.24 -4.89,-1.85 -4.60,-2.41 -4.30,-2.97 -3.89,-3.44 -3.47,-3.91 -2.95,-4.27 -2.43,-4.63 -1.84,-4.86 -1.25,-5.08 -0.62,-5.16 0.00,-5.23 0.00,-5.23 L 0,-5.23 Z"></path></g><g transform="translate(290.11093921796805 10) rotate(0 12.311534561229564 0)" stroke="none"><path fill="#1e1e1e" d="M 0,-5.24 Q 0,-5.24 2.51,-5.26 5.03,-5.28 8.28,-5.42 11.53,-5.56 14.02,-5.69 16.52,-5.81 18.71,-5.95 20.90,-6.09 22.76,-6.11 24.62,-6.13 25.60,-5.97 26.58,-5.81 27.46,-5.35 28.33,-4.88 29.02,-4.16 29.70,-3.44 30.11,-2.54 30.53,-1.64 30.64,-0.65 30.75,0.33 30.53,1.30 30.32,2.27 29.81,3.12 29.30,3.97 28.54,4.61 27.78,5.25 26.86,5.62 25.94,5.99 24.95,6.04 23.95,6.10 23.00,5.83 22.04,5.56 21.22,5.01 20.40,4.45 19.80,3.66 19.20,2.87 18.88,1.93 18.56,0.99 18.56,-0.00 18.56,-0.99 18.88,-1.93 19.20,-2.87 19.80,-3.66 20.40,-4.45 21.22,-5.01 22.04,-5.57 23.00,-5.83 23.96,-6.10 24.95,-6.04 25.94,-5.99 26.86,-5.62 27.78,-5.25 28.54,-4.61 29.30,-3.97 29.81,-3.12 30.32,-2.27 30.53,-1.30 30.75,-0.33 30.64,0.65 30.53,1.64 30.11,2.54 29.70,3.44 29.01,4.16 28.33,4.88 27.45,5.35 26.58,5.81 25.60,5.97 24.62,6.13 24.62,6.13 24.62,6.13 22.76,6.11 20.90,6.09 18.71,5.95 16.52,5.81 14.02,5.69 11.53,5.56 8.28,5.42 5.03,5.28 2.51,5.26 0,5.24 -0.62,5.16 -1.25,5.09 -1.84,4.86 -2.43,4.64 -2.95,4.28 -3.47,3.92 -3.89,3.45 -4.31,2.97 -4.60,2.41 -4.90,1.85 -5.05,1.24 -5.20,0.63 -5.20,-0.00 -5.20,-0.63 -5.05,-1.24 -4.90,-1.85 -4.60,-2.41 -4.31,-2.97 -3.89,-3.45 -3.47,-3.92 -2.95,-4.28 -2.43,-4.64 -1.84,-4.86 -1.25,-5.09 -0.62,-5.16 0.00,-5.24 0.00,-5.24 L 0,-5.24 Z"></path></g></svg>