<?xml version="1.0" standalone="no"?>
<!DOCTYPE svg PUBLIC "-//W3C//DTD SVG 1.1//EN" "http://www.w3.org/Graphics/SVG/1.1/DTD/svg11.dtd">
<svg version="1.1" xmlns="http://www.w3.org/2000/svg" viewBox="0 0 331.58615585301243 86.85261494035635" width="994.7584675590373" height="260.557844821069"><!-- svg-source:excalidraw --><metadata></metadata><defs><style class="style-fonts">
      </style></defs><g transform="translate(12.66389198630418 45.78412872595433) rotate(0 4.340359806784278 5.766126476128363)" stroke="none"><path fill="#1e1e1e" d="M 5.00,0.15 Q 5.00,0.15 5.02,2.10 5.05,4.05 5.23,6.55 5.41,9.05 3.60,7.90 1.78,6.76 1.97,4.55 2.15,2.34 3.41,4.30 4.66,6.26 6.59,5.11 8.51,3.96 6.85,0.84 5.19,-2.27 2.74,-2.54 0.29,-2.80 1.23,2.51 2.18,7.84 -0.04,7.24 -2.27,6.65 -3.28,6.11 -4.28,5.57 -5.06,4.74 -5.84,3.91 -6.31,2.88 -6.78,1.84 -6.90,0.71 -7.01,-0.41 -6.76,-1.52 -6.51,-2.63 -5.92,-3.60 -5.33,-4.58 -4.46,-5.31 -3.59,-6.04 -2.53,-6.45 -1.47,-6.87 -0.33,-6.93 0.79,-6.98 1.89,-6.67 2.98,-6.36 3.92,-5.72 4.86,-5.07 5.54,-4.17 6.23,-3.26 6.58,-2.18 6.94,-1.10 6.93,0.03 6.93,1.17 6.56,2.25 6.19,3.32 5.50,4.22 4.80,5.13 3.86,5.76 2.91,6.39 1.82,6.69 0.72,6.99 -0.41,6.92 -1.54,6.85 -2.60,6.43 -3.65,6.00 -4.52,5.26 -5.38,4.52 -5.96,3.54 -6.54,2.56 -6.78,1.45 -7.02,0.34 -6.89,-0.78 -6.76,-1.91 -6.28,-2.94 -5.79,-3.97 -5.01,-4.79 -4.22,-5.62 -3.21,-6.14 -2.20,-6.67 -1.08,-6.85 0.03,-7.03 1.15,-6.84 2.28,-6.65 2.28,-6.65 2.27,-6.65 5.04,-5.53 7.80,-4.41 9.20,1.17 10.60,6.75 8.53,8.53 6.46,10.30 3.47,10.68 0.48,11.06 -2.02,9.02 -4.53,6.98 -4.94,3.77 -5.35,0.55 -3.98,-2.01 -2.61,-4.58 -0.79,-5.74 1.02,-6.89 3.60,-7.10 6.18,-7.31 8.47,-6.70 10.75,-6.09 12.40,-4.69 14.04,-3.30 14.85,-0.86 15.66,1.57 15.51,3.86 15.37,6.15 14.75,8.34 14.13,10.54 12.63,12.77 11.13,15.01 9.22,16.28 7.30,17.56 4.79,17.57 2.29,17.58 -1.39,15.08 -5.08,12.59 -5.41,10.38 -5.74,8.16 -5.52,5.95 -5.29,3.73 -5.14,1.79 -5.00,-0.15 -4.91,-0.75 -4.82,-1.34 -4.59,-1.90 -4.36,-2.46 -4.00,-2.94 -3.64,-3.43 -3.18,-3.82 -2.71,-4.20 -2.17,-4.47 -1.63,-4.73 -1.04,-4.86 -0.44,-4.98 0.15,-4.96 0.75,-4.95 1.33,-4.78 1.92,-4.62 2.44,-4.32 2.97,-4.03 3.41,-3.61 3.85,-3.20 4.17,-2.69 4.50,-2.18 4.70,-1.61 4.89,-1.04 4.95,-0.44 5.00,0.15 5.00,0.15 L 5.00,0.15 Z"></path></g><g transform="translate(318.0209701577162 35.316202133121664) rotate(0 0.7182664882240601 4.64950662505629)" stroke="none"><path fill="#1e1e1e" d="M 4.59,1.84 Q 4.59,1.84 4.09,3.35 3.59,4.87 1.44,4.16 -0.70,3.45 -1.00,5.59 -1.29,7.72 1.51,6.89 4.33,6.06 2.56,2.99 0.79,-0.07 -1.58,0.76 -3.97,1.59 -5.26,2.11 -6.55,2.63 -6.80,1.51 -7.04,0.40 -6.92,-0.73 -6.80,-1.86 -6.33,-2.90 -5.85,-3.94 -5.07,-4.77 -4.28,-5.60 -3.28,-6.14 -2.27,-6.68 -1.14,-6.87 -0.01,-7.06 1.10,-6.87 2.23,-6.69 3.24,-6.16 4.25,-5.63 5.04,-4.80 5.83,-3.97 6.31,-2.94 6.79,-1.90 6.92,-0.77 7.05,0.36 6.80,1.47 6.56,2.59 5.98,3.57 5.39,4.55 4.52,5.29 3.65,6.04 2.59,6.46 1.53,6.89 0.39,6.95 -0.74,7.02 -1.84,6.71 -2.94,6.41 -3.89,5.77 -4.84,5.13 -5.53,4.23 -6.22,3.32 -6.59,2.24 -6.96,1.16 -6.96,0.01 -6.97,-1.12 -6.60,-2.20 -6.24,-3.29 -5.55,-4.20 -4.86,-5.11 -3.92,-5.75 -2.98,-6.40 -1.88,-6.70 -0.78,-7.01 0.35,-6.95 1.50,-6.90 2.56,-6.48 3.62,-6.06 4.49,-5.32 5.37,-4.58 5.96,-3.60 6.55,-2.63 6.55,-2.63 6.55,-2.63 7.68,0.61 8.80,3.86 8.53,6.14 8.26,8.43 6.78,10.35 5.29,12.28 1.49,12.88 -2.29,13.49 -4.65,11.79 -7.01,10.08 -7.96,7.27 -8.90,4.45 -8.23,2.12 -7.57,-0.20 -5.29,-2.34 -3.02,-4.48 -0.81,-4.76 1.38,-5.04 3.73,-4.12 6.08,-3.19 7.67,-1.50 9.27,0.19 9.59,3.44 9.91,6.68 9.42,8.90 8.93,11.11 7.34,12.80 5.76,14.48 3.09,14.87 0.42,15.26 -1.80,14.85 -4.03,14.44 -5.57,12.90 -7.11,11.36 -7.30,8.60 -7.49,5.84 -6.73,3.44 -5.96,1.04 -5.28,-0.39 -4.59,-1.84 -4.31,-2.36 -4.02,-2.88 -3.62,-3.32 -3.21,-3.76 -2.71,-4.09 -2.22,-4.42 -1.65,-4.62 -1.09,-4.83 -0.50,-4.89 0.09,-4.95 0.68,-4.87 1.27,-4.78 1.82,-4.56 2.38,-4.34 2.86,-3.99 3.35,-3.64 3.73,-3.19 4.12,-2.73 4.39,-2.20 4.66,-1.67 4.79,-1.08 4.92,-0.50 4.91,0.09 4.90,0.68 4.75,1.26 4.59,1.84 4.59,1.84 L 4.59,1.84 Z"></path></g><g transform="translate(10 11.990228770368105) rotate(0 9.525105699296631 8.639192429024561)" stroke="none"><path fill="#1e1e1e" d="M 2.76,-4.50 Q 2.76,-4.50 4.84,-3.25 6.92,-2.01 9.87,0.20 12.81,2.42 15.00,4.45 17.18,6.49 19.26,8.63 21.33,10.77 22.56,12.12 23.78,13.46 24.26,14.32 24.75,15.17 24.93,16.14 25.12,17.10 24.99,18.08 24.85,19.05 24.42,19.93 23.98,20.81 23.29,21.51 22.59,22.20 21.71,22.64 20.83,23.08 19.86,23.21 18.89,23.35 17.92,23.16 16.96,22.98 16.10,22.49 15.24,22.01 14.59,21.28 13.93,20.55 13.54,19.65 13.15,18.74 13.07,17.76 12.99,16.79 13.23,15.83 13.46,14.88 13.99,14.05 14.52,13.22 15.29,12.60 16.05,11.99 16.97,11.65 17.90,11.31 18.88,11.28 19.86,11.25 20.80,11.54 21.74,11.83 22.54,12.40 23.34,12.97 23.91,13.77 24.49,14.57 24.77,15.51 25.06,16.45 25.04,17.43 25.01,18.41 24.67,19.34 24.34,20.26 23.72,21.03 23.11,21.79 22.28,22.32 21.45,22.85 20.50,23.09 19.54,23.33 18.56,23.25 17.58,23.17 16.68,22.78 15.78,22.39 15.04,21.74 14.31,21.08 14.31,21.08 14.31,21.08 13.33,19.97 12.34,18.85 10.68,16.87 9.03,14.88 7.06,12.74 5.10,10.60 3.22,8.84 1.34,7.08 -0.70,5.79 -2.76,4.50 -3.26,4.10 -3.76,3.71 -4.15,3.20 -4.53,2.70 -4.79,2.12 -5.05,1.54 -5.16,0.91 -5.27,0.28 -5.23,-0.34 -5.19,-0.98 -4.99,-1.59 -4.80,-2.19 -4.47,-2.74 -4.13,-3.28 -3.68,-3.73 -3.23,-4.18 -2.68,-4.50 -2.13,-4.83 -1.52,-5.01 -0.91,-5.20 -0.28,-5.23 0.35,-5.27 0.97,-5.15 1.60,-5.03 2.18,-4.77 2.76,-4.50 2.76,-4.50 L 2.76,-4.50 Z"></path></g><g transform="translate(303.8063686926913 20.763231016256697) rotate(0 6.588979947648397 -5.33086006035235)" stroke="none"><path fill="#1e1e1e" d="M -3.24,-3.88 Q -3.24,-3.88 -2.40,-4.70 -1.55,-5.53 0.34,-6.91 2.25,-8.29 3.99,-9.66 5.72,-11.03 7.00,-12.85 8.29,-14.67 9.04,-15.35 9.79,-16.03 10.72,-16.43 11.65,-16.83 12.66,-16.92 13.67,-17.00 14.65,-16.76 15.64,-16.51 16.49,-15.97 17.35,-15.43 17.98,-14.64 18.62,-13.85 18.97,-12.90 19.32,-11.95 19.35,-10.94 19.38,-9.92 19.08,-8.96 18.79,-7.99 18.20,-7.16 17.61,-6.34 16.79,-5.75 15.96,-5.15 15.00,-4.85 14.03,-4.56 13.02,-4.58 12.00,-4.61 11.05,-4.95 10.10,-5.30 9.31,-5.94 8.52,-6.57 7.97,-7.42 7.43,-8.27 7.18,-9.26 6.93,-10.24 7.01,-11.25 7.09,-12.26 7.49,-13.19 7.89,-14.12 8.57,-14.88 9.24,-15.63 10.12,-16.13 11.00,-16.63 12.00,-16.82 12.99,-17.02 14.00,-16.88 15.00,-16.75 15.91,-16.30 16.82,-15.85 17.54,-15.13 18.25,-14.42 18.70,-13.51 19.16,-12.61 19.29,-11.60 19.43,-10.60 19.24,-9.60 19.05,-8.61 18.56,-7.73 18.06,-6.84 18.06,-6.84 18.06,-6.84 16.07,-4.60 14.07,-2.35 12.13,-1.05 10.19,0.24 7.67,1.38 5.16,2.51 4.20,3.20 3.24,3.88 2.73,4.21 2.22,4.54 1.64,4.74 1.06,4.94 0.46,5.00 -0.14,5.05 -0.75,4.96 -1.35,4.87 -1.91,4.64 -2.48,4.41 -2.97,4.04 -3.46,3.68 -3.85,3.22 -4.24,2.75 -4.51,2.20 -4.78,1.65 -4.91,1.05 -5.03,0.46 -5.02,-0.14 -5.00,-0.75 -4.84,-1.34 -4.67,-1.93 -4.37,-2.46 -4.07,-2.99 -3.66,-3.43 -3.24,-3.88 -3.24,-3.88 L -3.24,-3.88 Z"></path></g><g transform="translate(155.73273295975355 54.271054811650885) rotate(0 14.245362342464944 5.092463260192346)" stroke="none"><path fill="#1e1e1e" d="M 4.76,-1.95 Q 4.76,-1.95 5.46,-0.48 6.16,0.98 7.88,2.66 9.60,4.33 11.66,5.22 13.71,6.11 15.91,6.36 18.10,6.60 19.63,4.97 21.15,3.33 21.19,0.11 21.22,-3.10 21.41,-4.26 21.60,-5.42 22.15,-6.46 22.70,-7.50 23.55,-8.31 24.41,-9.11 25.48,-9.61 26.54,-10.10 27.71,-10.23 28.88,-10.36 30.03,-10.10 31.18,-9.85 32.18,-9.24 33.19,-8.64 33.95,-7.74 34.71,-6.84 35.15,-5.75 35.58,-4.66 35.65,-3.49 35.71,-2.31 35.40,-1.18 35.08,-0.05 34.42,0.92 33.76,1.89 32.82,2.60 31.89,3.31 30.77,3.69 29.66,4.06 28.48,4.06 27.31,4.06 26.19,3.69 25.08,3.31 24.14,2.60 23.21,1.89 22.55,0.91 21.89,-0.05 21.57,-1.18 21.26,-2.32 21.32,-3.49 21.39,-4.66 21.82,-5.76 22.26,-6.85 23.02,-7.74 23.78,-8.64 24.79,-9.25 25.80,-9.85 26.95,-10.10 28.10,-10.36 29.26,-10.23 30.43,-10.10 31.50,-9.61 32.57,-9.11 33.42,-8.30 34.27,-7.49 34.82,-6.46 35.37,-5.42 35.56,-4.26 35.75,-3.10 35.75,-3.10 35.75,-3.10 35.75,-1.45 35.74,0.19 35.57,2.66 35.40,5.14 34.47,7.76 33.54,10.39 32.35,12.37 31.16,14.35 29.61,15.92 28.06,17.49 26.09,18.58 24.13,19.67 21.25,19.82 18.36,19.97 16.18,19.70 14.00,19.43 11.89,18.83 9.78,18.22 7.66,17.18 5.54,16.13 3.57,14.55 1.59,12.96 0.10,11.19 -1.39,9.43 -2.54,7.23 -3.68,5.03 -4.22,3.49 -4.76,1.95 -4.93,1.35 -5.09,0.75 -5.11,0.13 -5.12,-0.48 -4.99,-1.08 -4.86,-1.69 -4.59,-2.25 -4.31,-2.81 -3.91,-3.28 -3.51,-3.76 -3.01,-4.12 -2.51,-4.49 -1.94,-4.73 -1.36,-4.96 -0.75,-5.05 -0.13,-5.14 0.47,-5.09 1.09,-5.03 1.68,-4.82 2.26,-4.62 2.78,-4.28 3.31,-3.94 3.73,-3.49 4.15,-3.04 4.46,-2.49 4.76,-1.95 4.76,-1.95 L 4.76,-1.95 Z"></path></g><g transform="translate(157.61837474682568 65.49262290176361) rotate(0 2.6931148198721644 5.618474264416363)" stroke="none"><path fill="#1e1e1e" d="M 4.98,0 Q 4.98,0 5.08,1.20 5.17,2.41 5.40,4.73 5.63,7.04 3.46,6.17 1.29,5.30 -0.90,6.12 -3.11,6.95 -2.25,4.56 -1.39,2.18 -0.06,5.22 1.26,8.26 -1.13,6.70 -3.53,5.15 -4.26,4.45 -4.99,3.75 -5.46,2.85 -5.93,1.96 -6.09,0.96 -6.24,-0.03 -6.07,-1.03 -5.91,-2.02 -5.43,-2.91 -4.95,-3.80 -4.21,-4.50 -3.47,-5.19 -2.55,-5.61 -1.63,-6.03 -0.63,-6.13 0.37,-6.23 1.35,-6.01 2.34,-5.79 3.20,-5.26 4.07,-4.74 4.72,-3.96 5.37,-3.19 5.74,-2.25 6.11,-1.30 6.15,-0.29 6.20,0.71 5.93,1.68 5.65,2.65 5.08,3.48 4.51,4.32 3.70,4.93 2.89,5.53 1.93,5.85 0.97,6.17 -0.03,6.16 -1.04,6.16 -2.00,5.83 -2.95,5.50 -3.75,4.88 -4.56,4.27 -5.12,3.43 -5.68,2.59 -5.95,1.61 -6.21,0.63 -6.15,-0.36 -6.09,-1.37 -5.71,-2.31 -5.33,-3.25 -4.67,-4.01 -4.01,-4.78 -3.14,-5.30 -2.27,-5.81 -1.29,-6.03 -0.30,-6.24 0.70,-6.12 1.70,-6.01 2.62,-5.58 3.53,-5.15 3.53,-5.15 3.53,-5.15 6.33,-3.14 9.12,-1.13 9.17,4.42 9.23,9.97 8.06,12.05 6.90,14.14 4.96,15.59 3.03,17.04 0.61,16.94 -1.80,16.84 -3.77,14.26 -5.74,11.68 -5.68,9.36 -5.63,7.04 -5.40,4.73 -5.17,2.41 -5.08,1.20 -4.98,0 -4.91,-0.59 -4.84,-1.19 -4.62,-1.75 -4.41,-2.31 -4.07,-2.81 -3.73,-3.30 -3.28,-3.70 -2.83,-4.10 -2.30,-4.38 -1.76,-4.66 -1.18,-4.80 -0.60,-4.95 0.00,-4.95 0.60,-4.95 1.18,-4.80 1.76,-4.66 2.30,-4.38 2.83,-4.10 3.28,-3.70 3.73,-3.30 4.07,-2.81 4.41,-2.31 4.62,-1.75 4.84,-1.19 4.91,-0.59 4.98,0.00 4.98,0.00 L 4.98,0 Z"></path></g><g transform="translate(181.80257659015524 67.37518860109176) rotate(0 3.2283540873282277 1.7718265405441116)" stroke="none"><path fill="#1e1e1e" d="M 4.13,-2.66 Q 4.13,-2.66 5.05,-1.42 5.97,-0.19 4.05,1.11 2.14,2.42 0.14,1.64 -1.84,0.85 -1.94,0.72 -2.04,0.58 -2.35,-0.13 -2.66,-0.85 -2.79,-1.63 -2.92,-2.40 -2.86,-3.19 -2.80,-3.97 -2.55,-4.72 -2.30,-5.46 -1.89,-6.13 -1.47,-6.79 -0.90,-7.34 -0.34,-7.89 0.33,-8.28 1.01,-8.68 1.76,-8.90 2.52,-9.12 3.30,-9.15 4.09,-9.19 4.86,-9.03 5.63,-8.88 6.34,-8.54 7.05,-8.21 7.66,-7.71 8.27,-7.22 8.75,-6.59 9.22,-5.97 6.53,-0.42 3.84,5.12 2.92,5.60 2.00,6.08 0.98,6.24 -0.04,6.40 -1.06,6.23 -2.08,6.06 -2.99,5.56 -3.91,5.07 -4.62,4.31 -5.32,3.56 -5.75,2.61 -6.18,1.67 -6.29,0.64 -6.39,-0.38 -6.16,-1.40 -5.93,-2.41 -5.39,-3.29 -4.85,-4.18 -4.06,-4.84 -3.26,-5.51 -2.30,-5.89 -1.33,-6.26 -0.30,-6.31 0.73,-6.36 1.73,-6.08 2.73,-5.79 3.58,-5.21 4.43,-4.62 5.06,-3.79 5.68,-2.96 6.00,-1.97 6.33,-0.99 6.32,0.04 6.31,1.07 5.97,2.05 5.64,3.04 5.00,3.86 4.37,4.68 3.51,5.25 2.65,5.83 1.65,6.10 0.64,6.37 -0.38,6.31 -1.42,6.24 -2.38,5.85 -3.34,5.46 -4.12,4.79 -4.91,4.11 -5.44,3.22 -5.97,2.33 -6.18,1.31 -6.40,0.30 -6.28,-0.72 -6.16,-1.75 -5.72,-2.69 -5.28,-3.63 -4.56,-4.38 -3.84,-5.12 -3.84,-5.12 -3.84,-5.12 -2.94,-2.27 -2.04,0.58 -2.35,-0.13 -2.66,-0.85 -2.79,-1.63 -2.92,-2.40 -2.86,-3.19 -2.80,-3.97 -2.55,-4.72 -2.30,-5.46 -1.89,-6.13 -1.47,-6.79 -0.90,-7.34 -0.34,-7.89 0.33,-8.28 1.01,-8.68 1.76,-8.90 2.52,-9.12 3.30,-9.15 4.09,-9.19 4.86,-9.03 5.63,-8.88 6.34,-8.54 7.05,-8.21 7.66,-7.71 8.27,-7.22 8.75,-6.59 9.22,-5.97 9.35,-5.70 9.49,-5.43 10.63,-3.36 11.78,-1.30 12.25,0.95 12.71,3.21 12.47,5.33 12.22,7.45 10.45,9.52 8.68,11.59 6.52,11.77 4.36,11.95 2.29,10.65 0.22,9.35 -1.21,7.35 -2.65,5.35 -3.39,4.00 -4.13,2.66 -4.39,2.12 -4.65,1.59 -4.77,1.01 -4.90,0.43 -4.88,-0.16 -4.86,-0.75 -4.70,-1.32 -4.54,-1.89 -4.24,-2.41 -3.95,-2.92 -3.54,-3.35 -3.14,-3.78 -2.64,-4.10 -2.14,-4.43 -1.58,-4.62 -1.02,-4.81 -0.42,-4.86 0.16,-4.91 0.74,-4.82 1.33,-4.73 1.88,-4.50 2.42,-4.28 2.90,-3.92 3.38,-3.57 3.76,-3.11 4.14,-2.66 4.14,-2.66 L 4.13,-2.66 Z"></path></g></svg>